<svg width="109" height="122" viewBox="0 0 109 122" fill="none" xmlns="http://www.w3.org/2000/svg">
<path d="M37.641 106.75C71.9033 106.75 90.6513 73.4762 90.6513 44.6706C90.6513 43.7345 90.6513 42.7984 90.615 41.8623C94.2483 38.7563 97.4093 34.9269 99.9163 30.5869C96.501 32.3314 92.904 33.5227 89.198 34.0333C93.0857 31.3102 95.9923 27.0127 97.373 21.9494C93.7033 24.5024 89.7067 26.2894 85.5283 27.2255C78.4797 18.4178 66.6713 17.9923 59.1503 26.2894C54.318 31.608 52.247 39.5647 53.773 47.1384C38.84 46.2449 24.8517 37.9478 15.405 24.3321C10.4637 34.2886 12.9707 47.0533 21.182 53.4357C18.2027 53.3508 15.3323 52.4144 12.7163 50.7125C12.7163 50.7977 12.7163 50.8828 12.7163 50.9677C12.7163 61.3499 18.9657 70.2849 27.6857 72.3701C24.9243 73.2637 22.054 73.3913 19.2563 72.7529C21.6907 81.6456 28.703 87.7304 36.66 87.9007C30.0473 93.9849 21.9087 97.2611 13.5157 97.2611C12.026 97.2611 10.5363 97.1335 9.08301 96.9632C17.6213 103.388 27.504 106.75 37.641 106.75Z" fill="#15A8FA" stroke="black" stroke-opacity="0.95" stroke-width="1.5" stroke-linecap="round" stroke-linejoin="round"/>
</svg>
