<svg width="425" height="70" viewBox="0 0 425 70" fill="none" xmlns="http://www.w3.org/2000/svg">
<path d="M62.8682 49L72.8523 26.6H77.9723L87.9883 49H82.5483L74.3563 29.224H76.4043L68.1803 49H62.8682ZM67.8602 44.2L69.2363 40.264H80.7563L82.1643 44.2H67.8602ZM100.136 49.256C98.6216 49.256 97.3203 48.936 96.2323 48.296C95.1443 47.656 94.3123 46.6853 93.7363 45.384C93.1603 44.0613 92.8723 42.3973 92.8723 40.392C92.8723 38.3653 93.1709 36.7013 93.7683 35.4C94.3869 34.0987 95.2403 33.128 96.3283 32.488C97.4163 31.848 98.6856 31.528 100.136 31.528C101.758 31.528 103.208 31.8907 104.488 32.616C105.79 33.3413 106.814 34.3653 107.56 35.688C108.328 37.0107 108.712 38.5787 108.712 40.392C108.712 42.184 108.328 43.7413 107.56 45.064C106.814 46.3867 105.79 47.4213 104.488 48.168C103.208 48.8933 101.758 49.256 100.136 49.256ZM89.9603 49V25.256H94.9523V35.272L94.6323 40.36L94.7283 45.48V49H89.9603ZM99.2723 45.16C100.104 45.16 100.84 44.968 101.48 44.584C102.142 44.2 102.664 43.656 103.048 42.952C103.454 42.2267 103.656 41.3733 103.656 40.392C103.656 39.3893 103.454 38.536 103.048 37.832C102.664 37.128 102.142 36.584 101.48 36.2C100.84 35.816 100.104 35.624 99.2723 35.624C98.4403 35.624 97.6936 35.816 97.0323 36.2C96.3709 36.584 95.8483 37.128 95.4643 37.832C95.0803 38.536 94.8883 39.3893 94.8883 40.392C94.8883 41.3733 95.0803 42.2267 95.4643 42.952C95.8483 43.656 96.3709 44.2 97.0323 44.584C97.6936 44.968 98.4403 45.16 99.2723 45.16ZM120.246 49.256C118.411 49.256 116.779 48.872 115.35 48.104C113.942 47.336 112.822 46.2907 111.99 44.968C111.179 43.624 110.774 42.0987 110.774 40.392C110.774 38.664 111.179 37.1387 111.99 35.816C112.822 34.472 113.942 33.4267 115.35 32.68C116.779 31.912 118.411 31.528 120.246 31.528C122.059 31.528 123.681 31.912 125.11 32.68C126.539 33.4267 127.659 34.4613 128.47 35.784C129.281 37.1067 129.686 38.6427 129.686 40.392C129.686 42.0987 129.281 43.624 128.47 44.968C127.659 46.2907 126.539 47.336 125.11 48.104C123.681 48.872 122.059 49.256 120.246 49.256ZM120.246 45.16C121.078 45.16 121.825 44.968 122.486 44.584C123.147 44.2 123.67 43.656 124.054 42.952C124.438 42.2267 124.63 41.3733 124.63 40.392C124.63 39.3893 124.438 38.536 124.054 37.832C123.67 37.128 123.147 36.584 122.486 36.2C121.825 35.816 121.078 35.624 120.246 35.624C119.414 35.624 118.667 35.816 118.006 36.2C117.345 36.584 116.811 37.128 116.406 37.832C116.022 38.536 115.83 39.3893 115.83 40.392C115.83 41.3733 116.022 42.2267 116.406 42.952C116.811 43.656 117.345 44.2 118.006 44.584C118.667 44.968 119.414 45.16 120.246 45.16ZM140.287 49.256C138.857 49.256 137.577 48.9787 136.447 48.424C135.337 47.8693 134.473 47.0267 133.855 45.896C133.236 44.744 132.927 43.2827 132.927 41.512V31.784H137.919V40.776C137.919 42.2053 138.217 43.2613 138.815 43.944C139.433 44.6053 140.297 44.936 141.407 44.936C142.175 44.936 142.857 44.776 143.455 44.456C144.052 44.1147 144.521 43.6027 144.863 42.92C145.204 42.216 145.375 41.3413 145.375 40.296V31.784H150.367V49H145.631V44.264L146.495 45.64C145.919 46.8347 145.065 47.7413 143.935 48.36C142.825 48.9573 141.609 49.256 140.287 49.256ZM162.032 49.256C160.005 49.256 158.426 48.744 157.296 47.72C156.165 46.6747 155.6 45.128 155.6 43.08V27.976H160.592V43.016C160.592 43.7413 160.784 44.3067 161.168 44.712C161.552 45.096 162.074 45.288 162.736 45.288C163.525 45.288 164.197 45.0747 164.752 44.648L166.096 48.168C165.584 48.5307 164.965 48.808 164.24 49C163.536 49.1707 162.8 49.256 162.032 49.256ZM152.944 36.008V32.168H164.88V36.008H152.944ZM175.368 49L185.352 26.6H190.472L200.488 49H195.048L186.856 29.224H188.904L180.68 49H175.368ZM180.36 44.2L181.736 40.264H193.256L194.664 44.2H180.36ZM210.4 55.464C208.779 55.464 207.211 55.2613 205.696 54.856C204.203 54.472 202.955 53.8853 201.952 53.096L203.936 49.512C204.661 50.1093 205.579 50.5787 206.688 50.92C207.819 51.2827 208.928 51.464 210.016 51.464C211.787 51.464 213.067 51.0693 213.856 50.28C214.667 49.4907 215.072 48.3173 215.072 46.76V44.168L215.392 39.848L215.328 35.496V31.784H220.064V46.12C220.064 49.32 219.232 51.6773 217.568 53.192C215.904 54.7067 213.515 55.464 210.4 55.464ZM209.632 48.168C208.032 48.168 206.581 47.8267 205.28 47.144C204 46.44 202.965 45.4693 202.176 44.232C201.408 42.9733 201.024 41.512 201.024 39.848C201.024 38.1627 201.408 36.7013 202.176 35.464C202.965 34.2053 204 33.2347 205.28 32.552C206.581 31.8693 208.032 31.528 209.632 31.528C211.083 31.528 212.363 31.8267 213.472 32.424C214.581 33 215.445 33.9067 216.064 35.144C216.683 36.36 216.992 37.928 216.992 39.848C216.992 41.7467 216.683 43.3147 216.064 44.552C215.445 45.768 214.581 46.6747 213.472 47.272C212.363 47.8693 211.083 48.168 209.632 48.168ZM210.624 44.072C211.499 44.072 212.277 43.9013 212.96 43.56C213.643 43.1973 214.176 42.696 214.56 42.056C214.944 41.416 215.136 40.68 215.136 39.848C215.136 38.9947 214.944 38.2587 214.56 37.64C214.176 37 213.643 36.5093 212.96 36.168C212.277 35.8053 211.499 35.624 210.624 35.624C209.749 35.624 208.971 35.8053 208.288 36.168C207.605 36.5093 207.061 37 206.656 37.64C206.272 38.2587 206.08 38.9947 206.08 39.848C206.08 40.68 206.272 41.416 206.656 42.056C207.061 42.696 207.605 43.1973 208.288 43.56C208.971 43.9013 209.749 44.072 210.624 44.072ZM224.71 49V31.784H229.478V36.648L228.806 35.24C229.318 34.024 230.14 33.1067 231.27 32.488C232.401 31.848 233.777 31.528 235.398 31.528V36.136C235.185 36.1147 234.993 36.104 234.822 36.104C234.652 36.0827 234.47 36.072 234.278 36.072C232.913 36.072 231.804 36.4667 230.95 37.256C230.118 38.024 229.702 39.2293 229.702 40.872V49H224.71ZM246.434 49.256C244.599 49.256 242.967 48.872 241.538 48.104C240.13 47.336 239.01 46.2907 238.178 44.968C237.367 43.624 236.962 42.0987 236.962 40.392C236.962 38.664 237.367 37.1387 238.178 35.816C239.01 34.472 240.13 33.4267 241.538 32.68C242.967 31.912 244.599 31.528 246.434 31.528C248.247 31.528 249.868 31.912 251.298 32.68C252.727 33.4267 253.847 34.4613 254.658 35.784C255.468 37.1067 255.874 38.6427 255.874 40.392C255.874 42.0987 255.468 43.624 254.658 44.968C253.847 46.2907 252.727 47.336 251.298 48.104C249.868 48.872 248.247 49.256 246.434 49.256ZM246.434 45.16C247.266 45.16 248.012 44.968 248.674 44.584C249.335 44.2 249.858 43.656 250.242 42.952C250.626 42.2267 250.818 41.3733 250.818 40.392C250.818 39.3893 250.626 38.536 250.242 37.832C249.858 37.128 249.335 36.584 248.674 36.2C248.012 35.816 247.266 35.624 246.434 35.624C245.602 35.624 244.855 35.816 244.194 36.2C243.532 36.584 242.999 37.128 242.594 37.832C242.21 38.536 242.018 39.3893 242.018 40.392C242.018 41.3733 242.21 42.2267 242.594 42.952C242.999 43.656 243.532 44.2 244.194 44.584C244.855 44.968 245.602 45.16 246.434 45.16ZM255.993 49L265.977 26.6H271.097L281.113 49H275.673L267.481 29.224H269.529L261.305 49H255.993ZM260.985 44.2L262.361 40.264H273.881L275.289 44.2H260.985ZM283.085 49V25.256H288.077V49H283.085ZM292.71 49V25.256H297.702V49H292.71ZM302.335 49V31.784H307.327V49H302.335ZM304.831 29.384C303.914 29.384 303.167 29.1173 302.591 28.584C302.015 28.0507 301.727 27.3893 301.727 26.6C301.727 25.8107 302.015 25.1493 302.591 24.616C303.167 24.0827 303.914 23.816 304.831 23.816C305.749 23.816 306.495 24.072 307.071 24.584C307.647 25.0747 307.935 25.7147 307.935 26.504C307.935 27.336 307.647 28.0293 307.071 28.584C306.517 29.1173 305.77 29.384 304.831 29.384ZM320.504 49.256C318.542 49.256 316.814 48.872 315.32 48.104C313.848 47.336 312.707 46.2907 311.896 44.968C311.086 43.624 310.68 42.0987 310.68 40.392C310.68 38.664 311.075 37.1387 311.864 35.816C312.675 34.472 313.774 33.4267 315.16 32.68C316.547 31.912 318.115 31.528 319.864 31.528C321.55 31.528 323.064 31.8907 324.408 32.616C325.774 33.32 326.851 34.344 327.64 35.688C328.43 37.0107 328.824 38.6 328.824 40.456C328.824 40.648 328.814 40.872 328.792 41.128C328.771 41.3627 328.75 41.5867 328.728 41.8H314.744V38.888H326.104L324.184 39.752C324.184 38.856 324.003 38.0773 323.64 37.416C323.278 36.7547 322.776 36.2427 322.136 35.88C321.496 35.496 320.75 35.304 319.896 35.304C319.043 35.304 318.286 35.496 317.624 35.88C316.984 36.2427 316.483 36.7653 316.12 37.448C315.758 38.1093 315.576 38.8987 315.576 39.816V40.584C315.576 41.5227 315.779 42.3547 316.184 43.08C316.611 43.784 317.198 44.328 317.944 44.712C318.712 45.0747 319.608 45.256 320.632 45.256C321.55 45.256 322.35 45.1173 323.032 44.84C323.736 44.5627 324.376 44.1467 324.952 43.592L327.608 46.472C326.819 47.368 325.827 48.0613 324.632 48.552C323.438 49.0213 322.062 49.256 320.504 49.256ZM337.94 49.256C336.468 49.256 335.049 49.0853 333.684 48.744C332.34 48.3813 331.273 47.9333 330.484 47.4L332.148 43.816C332.937 44.3067 333.865 44.712 334.932 45.032C336.02 45.3307 337.086 45.48 338.132 45.48C339.284 45.48 340.094 45.3413 340.564 45.064C341.054 44.7867 341.3 44.4027 341.3 43.912C341.3 43.5067 341.108 43.208 340.724 43.016C340.361 42.8027 339.87 42.6427 339.252 42.536C338.633 42.4293 337.95 42.3227 337.204 42.216C336.478 42.1093 335.742 41.9707 334.996 41.8C334.249 41.608 333.566 41.3307 332.948 40.968C332.329 40.6053 331.828 40.1147 331.444 39.496C331.081 38.8773 330.9 38.0773 330.9 37.096C330.9 36.008 331.209 35.048 331.828 34.216C332.468 33.384 333.385 32.7333 334.58 32.264C335.774 31.7733 337.204 31.528 338.868 31.528C340.041 31.528 341.236 31.656 342.452 31.912C343.668 32.168 344.681 32.5413 345.492 33.032L343.828 36.584C342.996 36.0933 342.153 35.7627 341.3 35.592C340.468 35.4 339.657 35.304 338.868 35.304C337.758 35.304 336.948 35.4533 336.436 35.752C335.924 36.0507 335.668 36.4347 335.668 36.904C335.668 37.3307 335.849 37.6507 336.212 37.864C336.596 38.0773 337.097 38.248 337.716 38.376C338.334 38.504 339.006 38.6213 339.732 38.728C340.478 38.8133 341.225 38.952 341.972 39.144C342.718 39.336 343.39 39.6133 343.988 39.976C344.606 40.3173 345.108 40.7973 345.492 41.416C345.876 42.0133 346.068 42.8027 346.068 43.784C346.068 44.8507 345.748 45.8 345.108 46.632C344.468 47.4427 343.54 48.0827 342.324 48.552C341.129 49.0213 339.668 49.256 337.94 49.256Z" fill="white"/>
<path d="M421 64H331V66H421V64Z" stroke="#22651D" stroke-width="7"/>
<path d="M94 4H4V6H94V4Z" stroke="#0E9802" stroke-width="7"/>
</svg>
