<svg width="414" height="56" viewBox="0 0 414 56" fill="none" xmlns="http://www.w3.org/2000/svg">
<rect width="414" height="56" rx="13" fill="#0B2709"/>
<path d="M130.376 39.384C128.648 39.384 127.037 39.1067 125.544 38.552C124.072 37.976 122.792 37.1653 121.704 36.12C120.616 35.0747 119.763 33.848 119.144 32.44C118.547 31.032 118.248 29.4853 118.248 27.8C118.248 26.1147 118.547 24.568 119.144 23.16C119.763 21.752 120.616 20.5253 121.704 19.48C122.813 18.4347 124.104 17.6347 125.576 17.08C127.048 16.504 128.659 16.216 130.408 16.216C132.349 16.216 134.099 16.5573 135.656 17.24C137.235 17.9013 138.557 18.8827 139.624 20.184L136.296 23.256C135.528 22.3813 134.675 21.7307 133.736 21.304C132.797 20.856 131.773 20.632 130.664 20.632C129.619 20.632 128.659 20.8027 127.784 21.144C126.909 21.4853 126.152 21.976 125.512 22.616C124.872 23.256 124.371 24.0133 124.008 24.888C123.667 25.7627 123.496 26.7333 123.496 27.8C123.496 28.8667 123.667 29.8373 124.008 30.712C124.371 31.5867 124.872 32.344 125.512 32.984C126.152 33.624 126.909 34.1147 127.784 34.456C128.659 34.7973 129.619 34.968 130.664 34.968C131.773 34.968 132.797 34.7547 133.736 34.328C134.675 33.88 135.528 33.208 136.296 32.312L139.624 35.384C138.557 36.6853 137.235 37.6773 135.656 38.36C134.099 39.0427 132.339 39.384 130.376 39.384ZM150.371 39.256C148.536 39.256 146.904 38.872 145.475 38.104C144.067 37.336 142.947 36.2907 142.115 34.968C141.304 33.624 140.899 32.0987 140.899 30.392C140.899 28.664 141.304 27.1387 142.115 25.816C142.947 24.472 144.067 23.4267 145.475 22.68C146.904 21.912 148.536 21.528 150.371 21.528C152.184 21.528 153.806 21.912 155.235 22.68C156.664 23.4267 157.784 24.4613 158.595 25.784C159.406 27.1067 159.811 28.6427 159.811 30.392C159.811 32.0987 159.406 33.624 158.595 34.968C157.784 36.2907 156.664 37.336 155.235 38.104C153.806 38.872 152.184 39.256 150.371 39.256ZM150.371 35.16C151.203 35.16 151.95 34.968 152.611 34.584C153.272 34.2 153.795 33.656 154.179 32.952C154.563 32.2267 154.755 31.3733 154.755 30.392C154.755 29.3893 154.563 28.536 154.179 27.832C153.795 27.128 153.272 26.584 152.611 26.2C151.95 25.816 151.203 25.624 150.371 25.624C149.539 25.624 148.792 25.816 148.131 26.2C147.47 26.584 146.936 27.128 146.531 27.832C146.147 28.536 145.955 29.3893 145.955 30.392C145.955 31.3733 146.147 32.2267 146.531 32.952C146.936 33.656 147.47 34.2 148.131 34.584C148.792 34.968 149.539 35.16 150.371 35.16ZM173.612 21.528C174.977 21.528 176.193 21.8053 177.26 22.36C178.348 22.8933 179.201 23.7253 179.82 24.856C180.438 25.9653 180.748 27.3947 180.748 29.144V39H175.756V29.912C175.756 28.5253 175.446 27.5013 174.828 26.84C174.23 26.1787 173.377 25.848 172.268 25.848C171.478 25.848 170.764 26.0187 170.124 26.36C169.505 26.68 169.014 27.1813 168.652 27.864C168.31 28.5467 168.14 29.4213 168.14 30.488V39H163.148V21.784H167.916V26.552L167.02 25.112C167.638 23.96 168.524 23.0747 169.676 22.456C170.828 21.8373 172.14 21.528 173.612 21.528ZM192.313 39.256C190.286 39.256 188.707 38.744 187.577 37.72C186.446 36.6747 185.881 35.128 185.881 33.08V17.976H190.873V33.016C190.873 33.7413 191.065 34.3067 191.449 34.712C191.833 35.096 192.355 35.288 193.017 35.288C193.806 35.288 194.478 35.0747 195.033 34.648L196.377 38.168C195.865 38.5307 195.246 38.808 194.521 39C193.817 39.1707 193.081 39.256 192.313 39.256ZM183.225 26.008V22.168H195.161V26.008H183.225ZM209.739 39V35.64L209.419 34.904V28.888C209.419 27.8213 209.088 26.9893 208.427 26.392C207.787 25.7947 206.795 25.496 205.451 25.496C204.534 25.496 203.627 25.6453 202.731 25.944C201.856 26.2213 201.11 26.6053 200.491 27.096L198.699 23.608C199.638 22.9467 200.768 22.4347 202.091 22.072C203.414 21.7093 204.758 21.528 206.123 21.528C208.747 21.528 210.784 22.1467 212.235 23.384C213.686 24.6213 214.411 26.552 214.411 29.176V39H209.739ZM204.491 39.256C203.147 39.256 201.995 39.032 201.035 38.584C200.075 38.1147 199.339 37.4853 198.827 36.696C198.315 35.9067 198.059 35.0213 198.059 34.04C198.059 33.016 198.304 32.12 198.795 31.352C199.307 30.584 200.107 29.9867 201.195 29.56C202.283 29.112 203.702 28.888 205.451 28.888H210.027V31.8H205.995C204.822 31.8 204.011 31.992 203.563 32.376C203.136 32.76 202.923 33.24 202.923 33.816C202.923 34.456 203.168 34.968 203.659 35.352C204.171 35.7147 204.864 35.896 205.739 35.896C206.571 35.896 207.318 35.704 207.979 35.32C208.64 34.9147 209.12 34.328 209.419 33.56L210.187 35.864C209.824 36.9733 209.163 37.816 208.203 38.392C207.243 38.968 206.006 39.256 204.491 39.256ZM227.374 39.256C225.518 39.256 223.865 38.8827 222.414 38.136C220.963 37.368 219.822 36.312 218.99 34.968C218.179 33.624 217.774 32.0987 217.774 30.392C217.774 28.664 218.179 27.1387 218.99 25.816C219.822 24.472 220.963 23.4267 222.414 22.68C223.865 21.912 225.518 21.528 227.374 21.528C229.187 21.528 230.766 21.912 232.11 22.68C233.454 23.4267 234.446 24.504 235.086 25.912L231.214 27.992C230.766 27.1813 230.201 26.584 229.518 26.2C228.857 25.816 228.131 25.624 227.342 25.624C226.489 25.624 225.721 25.816 225.038 26.2C224.355 26.584 223.811 27.128 223.406 27.832C223.022 28.536 222.83 29.3893 222.83 30.392C222.83 31.3947 223.022 32.248 223.406 32.952C223.811 33.656 224.355 34.2 225.038 34.584C225.721 34.968 226.489 35.16 227.342 35.16C228.131 35.16 228.857 34.9787 229.518 34.616C230.201 34.232 230.766 33.624 231.214 32.792L235.086 34.904C234.446 36.2907 233.454 37.368 232.11 38.136C230.766 38.8827 229.187 39.256 227.374 39.256ZM245.25 39.256C243.224 39.256 241.645 38.744 240.514 37.72C239.384 36.6747 238.818 35.128 238.818 33.08V17.976H243.81V33.016C243.81 33.7413 244.002 34.3067 244.386 34.712C244.77 35.096 245.293 35.288 245.954 35.288C246.744 35.288 247.416 35.0747 247.97 34.648L249.314 38.168C248.802 38.5307 248.184 38.808 247.458 39C246.754 39.1707 246.018 39.256 245.25 39.256ZM236.162 26.008V22.168H248.098V26.008H236.162ZM271.483 39.384C268.304 39.384 265.819 38.4987 264.027 36.728C262.235 34.9573 261.339 32.4293 261.339 29.144V16.6H266.523V28.952C266.523 31.0853 266.96 32.6213 267.835 33.56C268.71 34.4987 269.936 34.968 271.515 34.968C273.094 34.968 274.32 34.4987 275.195 33.56C276.07 32.6213 276.507 31.0853 276.507 28.952V16.6H281.627V29.144C281.627 32.4293 280.731 34.9573 278.939 36.728C277.147 38.4987 274.662 39.384 271.483 39.384ZM292.19 39.256C290.718 39.256 289.299 39.0853 287.934 38.744C286.59 38.3813 285.523 37.9333 284.734 37.4L286.398 33.816C287.187 34.3067 288.115 34.712 289.182 35.032C290.27 35.3307 291.336 35.48 292.382 35.48C293.534 35.48 294.344 35.3413 294.814 35.064C295.304 34.7867 295.55 34.4027 295.55 33.912C295.55 33.5067 295.358 33.208 294.974 33.016C294.611 32.8027 294.12 32.6427 293.502 32.536C292.883 32.4293 292.2 32.3227 291.454 32.216C290.728 32.1093 289.992 31.9707 289.246 31.8C288.499 31.608 287.816 31.3307 287.198 30.968C286.579 30.6053 286.078 30.1147 285.694 29.496C285.331 28.8773 285.15 28.0773 285.15 27.096C285.15 26.008 285.459 25.048 286.078 24.216C286.718 23.384 287.635 22.7333 288.83 22.264C290.024 21.7733 291.454 21.528 293.118 21.528C294.291 21.528 295.486 21.656 296.702 21.912C297.918 22.168 298.931 22.5413 299.742 23.032L298.078 26.584C297.246 26.0933 296.403 25.7627 295.55 25.592C294.718 25.4 293.907 25.304 293.118 25.304C292.008 25.304 291.198 25.4533 290.686 25.752C290.174 26.0507 289.918 26.4347 289.918 26.904C289.918 27.3307 290.099 27.6507 290.462 27.864C290.846 28.0773 291.347 28.248 291.966 28.376C292.584 28.504 293.256 28.6213 293.982 28.728C294.728 28.8133 295.475 28.952 296.222 29.144C296.968 29.336 297.64 29.6133 298.238 29.976C298.856 30.3173 299.358 30.7973 299.742 31.416C300.126 32.0133 300.318 32.8027 300.318 33.784C300.318 34.8507 299.998 35.8 299.358 36.632C298.718 37.4427 297.79 38.0827 296.574 38.552C295.379 39.0213 293.918 39.256 292.19 39.256Z" fill="white"/>
</svg>
