<svg width="388" height="64" viewBox="0 0 388 64" fill="none" xmlns="http://www.w3.org/2000/svg">
<path d="M0.562 51V6.2H10.93V51H0.562ZM41.786 16.056C44.5167 16.056 46.9487 16.6107 49.082 17.72C51.258 18.7867 52.9647 20.4507 54.202 22.712C55.4393 24.9307 56.058 27.7893 56.058 31.288V51H46.074V32.824C46.074 30.0507 45.4553 28.0027 44.218 26.68C43.0233 25.3573 41.3167 24.696 39.098 24.696C37.5193 24.696 36.09 25.0373 34.81 25.72C33.5727 26.36 32.5913 27.3627 31.866 28.728C31.1833 30.0933 30.842 31.8427 30.842 33.976V51H20.858V16.568H30.394V26.104L28.602 23.224C29.8393 20.92 31.61 19.1493 33.914 17.912C36.218 16.6747 38.842 16.056 41.786 16.056ZM79.188 51.512C75.1347 51.512 71.9773 50.488 69.716 48.44C67.4547 46.3493 66.324 43.256 66.324 39.16V8.952H76.308V39.032C76.308 40.4827 76.692 41.6133 77.46 42.424C78.228 43.192 79.2733 43.576 80.596 43.576C82.1747 43.576 83.5187 43.1493 84.628 42.296L87.316 49.336C86.292 50.0613 85.0547 50.616 83.604 51C82.196 51.3413 80.724 51.512 79.188 51.512ZM61.012 25.016V17.336H84.884V25.016H61.012ZM92.9205 51V16.568H102.457V26.296L101.113 23.48C102.137 21.048 103.779 19.2133 106.041 17.976C108.302 16.696 111.054 16.056 114.297 16.056V25.272C113.87 25.2293 113.486 25.208 113.145 25.208C112.803 25.1653 112.441 25.144 112.057 25.144C109.326 25.144 107.107 25.9333 105.401 27.512C103.737 29.048 102.905 31.4587 102.905 34.744V51H92.9205ZM136.367 51.512C132.698 51.512 129.434 50.744 126.575 49.208C123.759 47.672 121.519 45.5813 119.855 42.936C118.234 40.248 117.423 37.1973 117.423 33.784C117.423 30.328 118.234 27.2773 119.855 24.632C121.519 21.944 123.759 19.8533 126.575 18.36C129.434 16.824 132.698 16.056 136.367 16.056C139.994 16.056 143.236 16.824 146.095 18.36C148.954 19.8533 151.194 21.9227 152.815 24.568C154.436 27.2133 155.247 30.2853 155.247 33.784C155.247 37.1973 154.436 40.248 152.815 42.936C151.194 45.5813 148.954 47.672 146.095 49.208C143.236 50.744 139.994 51.512 136.367 51.512ZM136.367 43.32C138.031 43.32 139.524 42.936 140.847 42.168C142.17 41.4 143.215 40.312 143.983 38.904C144.751 37.4533 145.135 35.7467 145.135 33.784C145.135 31.7787 144.751 30.072 143.983 28.664C143.215 27.256 142.17 26.168 140.847 25.4C139.524 24.632 138.031 24.248 136.367 24.248C134.703 24.248 133.21 24.632 131.887 25.4C130.564 26.168 129.498 27.256 128.687 28.664C127.919 30.072 127.535 31.7787 127.535 33.784C127.535 35.7467 127.919 37.4533 128.687 38.904C129.498 40.312 130.564 41.4 131.887 42.168C133.21 42.936 134.703 43.32 136.367 43.32ZM176.705 51.512C173.462 51.512 170.539 50.7867 167.937 49.336C165.334 47.8427 163.265 45.7733 161.729 43.128C160.235 40.4827 159.489 37.368 159.489 33.784C159.489 30.1573 160.235 27.0213 161.729 24.376C163.265 21.7307 165.334 19.6827 167.937 18.232C170.539 16.7813 173.462 16.056 176.705 16.056C179.606 16.056 182.145 16.696 184.321 17.976C186.497 19.256 188.182 21.1973 189.377 23.8C190.571 26.4027 191.169 29.7307 191.169 33.784C191.169 37.7947 190.593 41.1227 189.441 43.768C188.289 46.3707 186.625 48.312 184.449 49.592C182.315 50.872 179.734 51.512 176.705 51.512ZM178.433 43.32C180.054 43.32 181.526 42.936 182.849 42.168C184.171 41.4 185.217 40.312 185.985 38.904C186.795 37.4533 187.201 35.7467 187.201 33.784C187.201 31.7787 186.795 30.072 185.985 28.664C185.217 27.256 184.171 26.168 182.849 25.4C181.526 24.632 180.054 24.248 178.433 24.248C176.769 24.248 175.275 24.632 173.953 25.4C172.63 26.168 171.563 27.256 170.753 28.664C169.985 30.072 169.601 31.7787 169.601 33.784C169.601 35.7467 169.985 37.4533 170.753 38.904C171.563 40.312 172.63 41.4 173.953 42.168C175.275 42.936 176.769 43.32 178.433 43.32ZM187.457 51V43.96L187.649 33.72L187.009 23.544V3.512H196.993V51H187.457ZM220.761 51.512C217.902 51.512 215.342 50.9573 213.081 49.848C210.862 48.7387 209.134 47.0533 207.897 44.792C206.66 42.488 206.041 39.5653 206.041 36.024V16.568H216.025V34.552C216.025 37.4107 216.622 39.5227 217.817 40.888C219.054 42.2107 220.782 42.872 223.001 42.872C224.537 42.872 225.902 42.552 227.097 41.912C228.292 41.2293 229.23 40.2053 229.913 38.84C230.596 37.432 230.937 35.6827 230.937 33.592V16.568H240.921V51H231.449V41.528L233.177 44.28C232.025 46.6693 230.318 48.4827 228.057 49.72C225.838 50.9147 223.406 51.512 220.761 51.512ZM266.811 51.512C263.099 51.512 259.792 50.7653 256.891 49.272C253.989 47.736 251.707 45.624 250.043 42.936C248.421 40.248 247.611 37.1973 247.611 33.784C247.611 30.328 248.421 27.2773 250.043 24.632C251.707 21.944 253.989 19.8533 256.891 18.36C259.792 16.824 263.099 16.056 266.811 16.056C270.437 16.056 273.595 16.824 276.283 18.36C278.971 19.8533 280.955 22.008 282.235 24.824L274.491 28.984C273.595 27.3627 272.464 26.168 271.099 25.4C269.776 24.632 268.325 24.248 266.747 24.248C265.04 24.248 263.504 24.632 262.139 25.4C260.773 26.168 259.685 27.256 258.875 28.664C258.107 30.072 257.723 31.7787 257.723 33.784C257.723 35.7893 258.107 37.496 258.875 38.904C259.685 40.312 260.773 41.4 262.139 42.168C263.504 42.936 265.04 43.32 266.747 43.32C268.325 43.32 269.776 42.9573 271.099 42.232C272.464 41.464 273.595 40.248 274.491 38.584L282.235 42.808C280.955 45.5813 278.971 47.736 276.283 49.272C273.595 50.7653 270.437 51.512 266.811 51.512ZM287.796 51V16.568H297.78V51H287.796ZM292.788 11.768C290.953 11.768 289.46 11.2347 288.308 10.168C287.156 9.10133 286.58 7.77866 286.58 6.2C286.58 4.62133 287.156 3.29866 288.308 2.232C289.46 1.16533 290.953 0.631996 292.788 0.631996C294.622 0.631996 296.116 1.144 297.268 2.168C298.42 3.14933 298.996 4.42933 298.996 6.008C298.996 7.672 298.42 9.05866 297.268 10.168C296.158 11.2347 294.665 11.768 292.788 11.768ZM327.974 16.056C330.704 16.056 333.136 16.6107 335.27 17.72C337.446 18.7867 339.152 20.4507 340.39 22.712C341.627 24.9307 342.246 27.7893 342.246 31.288V51H332.262V32.824C332.262 30.0507 331.643 28.0027 330.406 26.68C329.211 25.3573 327.504 24.696 325.286 24.696C323.707 24.696 322.278 25.0373 320.998 25.72C319.76 26.36 318.779 27.3627 318.054 28.728C317.371 30.0933 317.03 31.8427 317.03 33.976V51H307.046V16.568H316.582V26.104L314.79 23.224C316.027 20.92 317.798 19.1493 320.102 17.912C322.406 16.6747 325.03 16.056 327.974 16.056ZM367.738 63.928C364.495 63.928 361.359 63.5227 358.33 62.712C355.343 61.944 352.847 60.7707 350.842 59.192L354.81 52.024C356.26 53.2187 358.095 54.1573 360.314 54.84C362.575 55.5653 364.794 55.928 366.97 55.928C370.511 55.928 373.071 55.1387 374.65 53.56C376.271 51.9813 377.082 49.6347 377.082 46.52V41.336L377.722 32.696L377.594 23.992V16.568H387.066V45.24C387.066 51.64 385.402 56.3547 382.074 59.384C378.746 62.4133 373.967 63.928 367.738 63.928ZM366.202 49.336C363.002 49.336 360.1 48.6533 357.498 47.288C354.938 45.88 352.868 43.9387 351.29 41.464C349.754 38.9467 348.986 36.024 348.986 32.696C348.986 29.3253 349.754 26.4027 351.29 23.928C352.868 21.4107 354.938 19.4693 357.498 18.104C360.1 16.7387 363.002 16.056 366.202 16.056C369.103 16.056 371.663 16.6533 373.882 17.848C376.1 19 377.828 20.8133 379.066 23.288C380.303 25.72 380.922 28.856 380.922 32.696C380.922 36.4933 380.303 39.6293 379.066 42.104C377.828 44.536 376.1 46.3493 373.882 47.544C371.663 48.7387 369.103 49.336 366.202 49.336ZM368.186 41.144C369.935 41.144 371.492 40.8027 372.858 40.12C374.223 39.3947 375.29 38.392 376.058 37.112C376.826 35.832 377.21 34.36 377.21 32.696C377.21 30.9893 376.826 29.5173 376.058 28.28C375.29 27 374.223 26.0187 372.858 25.336C371.492 24.6107 369.935 24.248 368.186 24.248C366.436 24.248 364.879 24.6107 363.514 25.336C362.148 26.0187 361.06 27 360.25 28.28C359.482 29.5173 359.098 30.9893 359.098 32.696C359.098 34.36 359.482 35.832 360.25 37.112C361.06 38.392 362.148 39.3947 363.514 40.12C364.879 40.8027 366.436 41.144 368.186 41.144Z" fill="url(#paint0_linear_102_361)"/>
<defs>
<linearGradient id="paint0_linear_102_361" x1="193.5" y1="-11" x2="193.5" y2="81" gradientUnits="userSpaceOnUse">
<stop offset="0.421874" stop-color="#22651D"/>
<stop offset="0.941586" stop-color="white" stop-opacity="0"/>
</linearGradient>
</defs>
</svg>
