<svg width="325" height="70" viewBox="0 0 325 70" fill="none" xmlns="http://www.w3.org/2000/svg">
<path d="M79.6766 49.384C77.906 49.384 76.2633 49.096 74.7486 48.52C73.2553 47.944 71.954 47.1333 70.8446 46.088C69.7566 45.0427 68.9033 43.816 68.2846 42.408C67.6873 41 67.3886 39.464 67.3886 37.8C67.3886 36.136 67.6873 34.6 68.2846 33.192C68.9033 31.784 69.7673 30.5573 70.8766 29.512C71.986 28.4667 73.2873 27.656 74.7806 27.08C76.274 26.504 77.8953 26.216 79.6446 26.216C81.4153 26.216 83.0366 26.504 84.5086 27.08C86.002 27.656 87.2926 28.4667 88.3806 29.512C89.49 30.5573 90.354 31.784 90.9726 33.192C91.5913 34.5787 91.9006 36.1147 91.9006 37.8C91.9006 39.464 91.5913 41.0107 90.9726 42.44C90.354 43.848 89.49 45.0747 88.3806 46.12C87.2926 47.144 86.002 47.944 84.5086 48.52C83.0366 49.096 81.426 49.384 79.6766 49.384ZM79.6446 44.968C80.6473 44.968 81.5646 44.7973 82.3966 44.456C83.25 44.1147 83.9966 43.624 84.6366 42.984C85.2766 42.344 85.7673 41.5867 86.1086 40.712C86.4713 39.8373 86.6526 38.8667 86.6526 37.8C86.6526 36.7333 86.4713 35.7627 86.1086 34.888C85.7673 34.0133 85.2766 33.256 84.6366 32.616C84.018 31.976 83.282 31.4853 82.4286 31.144C81.5753 30.8027 80.6473 30.632 79.6446 30.632C78.642 30.632 77.714 30.8027 76.8606 31.144C76.0286 31.4853 75.2926 31.976 74.6526 32.616C74.0126 33.256 73.5113 34.0133 73.1486 34.888C72.8073 35.7627 72.6366 36.7333 72.6366 37.8C72.6366 38.8453 72.8073 39.816 73.1486 40.712C73.5113 41.5867 74.002 42.344 74.6206 42.984C75.2606 43.624 76.0073 44.1147 76.8606 44.456C77.714 44.7973 78.642 44.968 79.6446 44.968ZM102.709 49.256C101.279 49.256 99.9993 48.9787 98.8686 48.424C97.7593 47.8693 96.8953 47.0267 96.2766 45.896C95.658 44.744 95.3486 43.2827 95.3486 41.512V31.784H100.341V40.776C100.341 42.2053 100.639 43.2613 101.237 43.944C101.855 44.6053 102.719 44.936 103.829 44.936C104.597 44.936 105.279 44.776 105.877 44.456C106.474 44.1147 106.943 43.6027 107.285 42.92C107.626 42.216 107.797 41.3413 107.797 40.296V31.784H112.789V49H108.053V44.264L108.917 45.64C108.341 46.8347 107.487 47.7413 106.357 48.36C105.247 48.9573 104.031 49.256 102.709 49.256ZM117.413 49V31.784H122.181V36.648L121.509 35.24C122.021 34.024 122.843 33.1067 123.973 32.488C125.104 31.848 126.48 31.528 128.101 31.528V36.136C127.888 36.1147 127.696 36.104 127.525 36.104C127.355 36.0827 127.173 36.072 126.981 36.072C125.616 36.072 124.507 36.4667 123.653 37.256C122.821 38.024 122.405 39.2293 122.405 40.872V49H117.413ZM140.609 49V26.6H144.897L154.433 42.408H152.161L161.537 26.6H165.793L165.857 49H160.993L160.961 34.056H161.857L154.369 46.632H152.033L144.385 34.056H145.473V49H140.609ZM170.82 49V31.784H175.812V49H170.82ZM173.316 29.384C172.398 29.384 171.652 29.1173 171.076 28.584C170.5 28.0507 170.212 27.3893 170.212 26.6C170.212 25.8107 170.5 25.1493 171.076 24.616C171.652 24.0827 172.398 23.816 173.316 23.816C174.233 23.816 174.98 24.072 175.556 24.584C176.132 25.0747 176.42 25.7147 176.42 26.504C176.42 27.336 176.132 28.0293 175.556 28.584C175.001 29.1173 174.254 29.384 173.316 29.384ZM186.237 49.256C184.765 49.256 183.346 49.0853 181.981 48.744C180.637 48.3813 179.57 47.9333 178.781 47.4L180.445 43.816C181.234 44.3067 182.162 44.712 183.229 45.032C184.317 45.3307 185.383 45.48 186.429 45.48C187.581 45.48 188.391 45.3413 188.861 45.064C189.351 44.7867 189.597 44.4027 189.597 43.912C189.597 43.5067 189.405 43.208 189.021 43.016C188.658 42.8027 188.167 42.6427 187.549 42.536C186.93 42.4293 186.247 42.3227 185.501 42.216C184.775 42.1093 184.039 41.9707 183.293 41.8C182.546 41.608 181.863 41.3307 181.245 40.968C180.626 40.6053 180.125 40.1147 179.741 39.496C179.378 38.8773 179.197 38.0773 179.197 37.096C179.197 36.008 179.506 35.048 180.125 34.216C180.765 33.384 181.682 32.7333 182.877 32.264C184.071 31.7733 185.501 31.528 187.165 31.528C188.338 31.528 189.533 31.656 190.749 31.912C191.965 32.168 192.978 32.5413 193.789 33.032L192.125 36.584C191.293 36.0933 190.45 35.7627 189.597 35.592C188.765 35.4 187.954 35.304 187.165 35.304C186.055 35.304 185.245 35.4533 184.733 35.752C184.221 36.0507 183.965 36.4347 183.965 36.904C183.965 37.3307 184.146 37.6507 184.509 37.864C184.893 38.0773 185.394 38.248 186.013 38.376C186.631 38.504 187.303 38.6213 188.029 38.728C188.775 38.8133 189.522 38.952 190.269 39.144C191.015 39.336 191.687 39.6133 192.285 39.976C192.903 40.3173 193.405 40.7973 193.789 41.416C194.173 42.0133 194.365 42.8027 194.365 43.784C194.365 44.8507 194.045 45.8 193.405 46.632C192.765 47.4427 191.837 48.0827 190.621 48.552C189.426 49.0213 187.965 49.256 186.237 49.256ZM203.237 49.256C201.765 49.256 200.346 49.0853 198.981 48.744C197.637 48.3813 196.57 47.9333 195.781 47.4L197.445 43.816C198.234 44.3067 199.162 44.712 200.229 45.032C201.317 45.3307 202.383 45.48 203.429 45.48C204.581 45.48 205.391 45.3413 205.861 45.064C206.351 44.7867 206.597 44.4027 206.597 43.912C206.597 43.5067 206.405 43.208 206.021 43.016C205.658 42.8027 205.167 42.6427 204.549 42.536C203.93 42.4293 203.247 42.3227 202.501 42.216C201.775 42.1093 201.039 41.9707 200.293 41.8C199.546 41.608 198.863 41.3307 198.245 40.968C197.626 40.6053 197.125 40.1147 196.741 39.496C196.378 38.8773 196.197 38.0773 196.197 37.096C196.197 36.008 196.506 35.048 197.125 34.216C197.765 33.384 198.682 32.7333 199.877 32.264C201.071 31.7733 202.501 31.528 204.165 31.528C205.338 31.528 206.533 31.656 207.749 31.912C208.965 32.168 209.978 32.5413 210.789 33.032L209.125 36.584C208.293 36.0933 207.45 35.7627 206.597 35.592C205.765 35.4 204.954 35.304 204.165 35.304C203.055 35.304 202.245 35.4533 201.733 35.752C201.221 36.0507 200.965 36.4347 200.965 36.904C200.965 37.3307 201.146 37.6507 201.509 37.864C201.893 38.0773 202.394 38.248 203.013 38.376C203.631 38.504 204.303 38.6213 205.029 38.728C205.775 38.8133 206.522 38.952 207.269 39.144C208.015 39.336 208.687 39.6133 209.285 39.976C209.903 40.3173 210.405 40.7973 210.789 41.416C211.173 42.0133 211.365 42.8027 211.365 43.784C211.365 44.8507 211.045 45.8 210.405 46.632C209.765 47.4427 208.837 48.0827 207.621 48.552C206.426 49.0213 204.965 49.256 203.237 49.256ZM214.445 49V31.784H219.437V49H214.445ZM216.941 29.384C216.023 29.384 215.277 29.1173 214.701 28.584C214.125 28.0507 213.837 27.3893 213.837 26.6C213.837 25.8107 214.125 25.1493 214.701 24.616C215.277 24.0827 216.023 23.816 216.941 23.816C217.858 23.816 218.605 24.072 219.181 24.584C219.757 25.0747 220.045 25.7147 220.045 26.504C220.045 27.336 219.757 28.0293 219.181 28.584C218.626 29.1173 217.879 29.384 216.941 29.384ZM232.262 49.256C230.427 49.256 228.795 48.872 227.366 48.104C225.958 47.336 224.838 46.2907 224.006 44.968C223.195 43.624 222.79 42.0987 222.79 40.392C222.79 38.664 223.195 37.1387 224.006 35.816C224.838 34.472 225.958 33.4267 227.366 32.68C228.795 31.912 230.427 31.528 232.262 31.528C234.075 31.528 235.696 31.912 237.126 32.68C238.555 33.4267 239.675 34.4613 240.486 35.784C241.296 37.1067 241.702 38.6427 241.702 40.392C241.702 42.0987 241.296 43.624 240.486 44.968C239.675 46.2907 238.555 47.336 237.126 48.104C235.696 48.872 234.075 49.256 232.262 49.256ZM232.262 45.16C233.094 45.16 233.84 44.968 234.502 44.584C235.163 44.2 235.686 43.656 236.07 42.952C236.454 42.2267 236.646 41.3733 236.646 40.392C236.646 39.3893 236.454 38.536 236.07 37.832C235.686 37.128 235.163 36.584 234.502 36.2C233.84 35.816 233.094 35.624 232.262 35.624C231.43 35.624 230.683 35.816 230.022 36.2C229.36 36.584 228.827 37.128 228.422 37.832C228.038 38.536 227.846 39.3893 227.846 40.392C227.846 41.3733 228.038 42.2267 228.422 42.952C228.827 43.656 229.36 44.2 230.022 44.584C230.683 44.968 231.43 45.16 232.262 45.16ZM255.502 31.528C256.868 31.528 258.084 31.8053 259.15 32.36C260.238 32.8933 261.092 33.7253 261.71 34.856C262.329 35.9653 262.638 37.3947 262.638 39.144V49H257.646V39.912C257.646 38.5253 257.337 37.5013 256.718 36.84C256.121 36.1787 255.268 35.848 254.158 35.848C253.369 35.848 252.654 36.0187 252.014 36.36C251.396 36.68 250.905 37.1813 250.542 37.864C250.201 38.5467 250.03 39.4213 250.03 40.488V49H245.038V31.784H249.806V36.552L248.91 35.112C249.529 33.96 250.414 33.0747 251.566 32.456C252.718 31.8373 254.03 31.528 255.502 31.528Z" fill="white"/>
<path d="M321 64H231V66H321V64Z" stroke="#22651D" stroke-width="7"/>
<path d="M94 4H4V6H94V4Z" stroke="#0E9802" stroke-width="7"/>
</svg>
