<svg width="1245" height="326" viewBox="0 0 1245 326" fill="none" xmlns="http://www.w3.org/2000/svg">
<path d="M1245 607C1245 942.237 966.297 1214 622.5 1214C278.703 1214 0 942.237 0 607C0 271.763 278.703 0 622.5 0C966.297 0 1245 271.763 1245 607Z" fill="#D9D9D9"/>
<path d="M417.25 129.812L418.156 127.562H425.844L426.75 129.812H417.25ZM415.5 134.312L416.375 132.062H427.594L428.562 134.312H415.5ZM413.75 138.812L414.625 136.562H429.375L430.312 138.812H413.75ZM395.469 145H393.031L413.5 93.25H415.938L436.375 145H433.969L414.719 96.2812L395.469 145ZM415 101.625L416.281 104.5L400.281 145H397.875L415 101.625ZM417.5 107.562L418.688 110.656L405.156 145H402.719L417.5 107.562ZM419.875 113.75L421.062 116.906L409.969 145H407.562L419.875 113.75ZM450.906 145H448.469L428.031 93.25H430.438L450.906 145ZM425.594 93.25L446.062 145H443.656L423.188 93.25H425.594ZM420.75 93.25L441.219 145H438.781L418.344 93.25H420.75ZM492.875 117.969H495.125V145H492.875V117.969ZM501.875 117.969H504.125V145H501.875V117.969ZM497.375 117.969H499.625V145H497.375V117.969ZM490.625 117.969V145C486.667 146.5 482.562 147.25 478.312 147.25C474.625 147.25 471.094 146.573 467.719 145.219C464.344 143.865 461.375 141.99 458.812 139.594C456.25 137.177 454.198 134.198 452.656 130.656C451.135 127.094 450.375 123.25 450.375 119.125C450.375 115.312 451.115 111.677 452.594 108.219C454.094 104.74 456.094 101.75 458.594 99.25C461.115 96.7292 464.104 94.7292 467.562 93.25C471.042 91.75 474.688 91 478.5 91C483.25 91 487.667 92.1042 491.75 94.3125C495.833 96.5208 499.167 99.5208 501.75 103.312L499.875 104.531C497.5 101.052 494.427 98.3021 490.656 96.2812C486.906 94.2604 482.854 93.25 478.5 93.25C475 93.25 471.646 93.9375 468.438 95.3125C465.25 96.6667 462.5 98.5 460.188 100.812C457.875 103.125 456.031 105.885 454.656 109.094C453.302 112.281 452.625 115.625 452.625 119.125C452.625 122.896 453.323 126.417 454.719 129.688C456.135 132.958 458.01 135.698 460.344 137.906C462.698 140.115 465.427 141.854 468.531 143.125C471.635 144.375 474.865 145 478.219 145C481.74 145 485.125 144.448 488.375 143.344V141.188C485.271 142.229 482.01 142.75 478.594 142.75C476.115 142.75 473.698 142.406 471.344 141.719C469.01 141.01 466.844 139.979 464.844 138.625C462.865 137.25 461.125 135.625 459.625 133.75C458.146 131.854 456.979 129.656 456.125 127.156C455.292 124.635 454.875 121.958 454.875 119.125C454.875 114.854 455.927 110.906 458.031 107.281C460.156 103.656 463.031 100.792 466.656 98.6875C470.281 96.5625 474.229 95.5 478.5 95.5C482.5 95.5 486.219 96.4375 489.656 98.3125C493.094 100.167 495.896 102.688 498.062 105.875L496.188 107.094C494.229 104.219 491.688 101.948 488.562 100.281C485.458 98.5938 482.104 97.75 478.5 97.75C475.604 97.75 472.833 98.3125 470.188 99.4375C467.542 100.562 465.26 102.083 463.344 104C461.448 105.896 459.938 108.167 458.812 110.812C457.688 113.458 457.125 116.229 457.125 119.125C457.125 121.729 457.5 124.177 458.25 126.469C459.021 128.74 460.073 130.729 461.406 132.438C462.76 134.125 464.333 135.583 466.125 136.812C467.917 138.021 469.865 138.938 471.969 139.562C474.094 140.188 476.271 140.5 478.5 140.5C481.958 140.5 485.25 139.917 488.375 138.75V136.5C485.292 137.688 482.073 138.281 478.719 138.281C476.177 138.281 473.75 137.854 471.438 137C469.125 136.125 467.062 134.896 465.25 133.312C463.458 131.729 462.031 129.708 460.969 127.25C459.906 124.792 459.375 122.083 459.375 119.125C459.375 115.667 460.229 112.469 461.938 109.531C463.646 106.594 465.969 104.271 468.906 102.562C471.844 100.854 475.042 100 478.5 100C481.729 100 484.729 100.75 487.5 102.25C490.292 103.75 492.562 105.792 494.312 108.375L492.438 109.594C490.896 107.344 488.896 105.562 486.438 104.25C484 102.917 481.354 102.25 478.5 102.25C475.438 102.25 472.615 103.01 470.031 104.531C467.448 106.031 465.396 108.073 463.875 110.656C462.375 113.24 461.625 116.062 461.625 119.125C461.625 121.25 461.927 123.229 462.531 125.062C463.135 126.896 463.969 128.479 465.031 129.812C466.094 131.146 467.333 132.281 468.75 133.219C470.188 134.156 471.729 134.865 473.375 135.344C475.021 135.802 476.729 136.031 478.5 136.031C482.021 136.031 485.312 135.333 488.375 133.938V131.781C485.417 133.094 482.219 133.75 478.781 133.75C476.802 133.75 474.938 133.448 473.188 132.844C471.438 132.24 469.854 131.354 468.438 130.188C467.042 129.021 465.927 127.49 465.094 125.594C464.281 123.677 463.875 121.521 463.875 119.125C463.875 117.146 464.26 115.26 465.031 113.469C465.802 111.656 466.844 110.094 468.156 108.781C469.469 107.469 471.021 106.427 472.812 105.656C474.625 104.885 476.521 104.5 478.5 104.5C480.979 104.5 483.281 105.083 485.406 106.25C487.531 107.396 489.26 108.958 490.594 110.938L488.75 112.156C487.625 110.49 486.156 109.177 484.344 108.219C482.552 107.24 480.604 106.75 478.5 106.75C475.083 106.75 472.167 107.958 469.75 110.375C467.333 112.792 466.125 115.708 466.125 119.125C466.125 121.229 466.469 123.094 467.156 124.719C467.844 126.323 468.781 127.615 469.969 128.594C471.177 129.552 472.51 130.281 473.969 130.781C475.448 131.26 477.031 131.5 478.719 131.5C482.177 131.5 485.396 130.781 488.375 129.344V117.969H490.625ZM526.656 119.25H540.219C542.281 119.25 544.021 118.583 545.438 117.25C546.875 115.917 547.594 114.021 547.594 111.562C547.594 109.75 546.844 108.125 545.344 106.688C543.844 105.229 542.135 104.5 540.219 104.5H520.906V145H518.656V102.25H540.219C542.76 102.25 545 103.198 546.938 105.094C548.875 106.969 549.844 109.125 549.844 111.562C549.844 114.562 548.906 116.969 547.031 118.781C545.156 120.594 542.885 121.5 540.219 121.5H526.656V119.25ZM526.656 123.75H540.219C543.469 123.75 546.26 122.615 548.594 120.344C550.927 118.052 552.094 115.125 552.094 111.562C552.094 108.5 550.896 105.812 548.5 103.5C546.125 101.167 543.365 100 540.219 100H516.406V145H514.156V97.75H540.219C542.698 97.75 545.021 98.3854 547.188 99.6562C549.375 100.927 551.115 102.635 552.406 104.781C553.698 106.906 554.344 109.167 554.344 111.562C554.344 115.667 552.948 119.104 550.156 121.875C547.385 124.625 544.073 126 540.219 126H526.656V123.75ZM526.656 128.25H540.219C543.135 128.25 545.844 127.531 548.344 126.094C550.844 124.656 552.844 122.656 554.344 120.094C555.844 117.51 556.594 114.667 556.594 111.562C556.594 108.75 555.844 106.115 554.344 103.656C552.865 101.177 550.865 99.1979 548.344 97.7188C545.823 96.2396 543.115 95.5 540.219 95.5H511.906V145H509.656V93.25H540.219C543.49 93.25 546.562 94.0938 549.438 95.7812C552.312 97.4479 554.594 99.6979 556.281 102.531C557.99 105.344 558.844 108.354 558.844 111.562C558.844 115.271 558.042 118.531 556.438 121.344C554.854 124.156 552.698 126.354 549.969 127.938L555.781 145H553.406L547.844 129C547.01 129.333 546.375 129.562 545.938 129.688L551.156 145H548.781L543.688 130.219C543.5 130.26 542.833 130.333 541.688 130.438L546.531 145H544.156L539.375 130.5H537.344L541.906 145H539.531L534.938 130.5H526.656V128.25ZM525.406 145H523.156V106.75H540.219C541.615 106.75 542.812 107.229 543.812 108.188C544.833 109.125 545.344 110.25 545.344 111.562C545.344 115.188 543.635 117 540.219 117H526.656V114.75H540.219C541.115 114.75 541.812 114.521 542.312 114.062C542.833 113.583 543.094 112.75 543.094 111.562C543.094 110.833 542.812 110.229 542.25 109.75C541.708 109.25 541.031 109 540.219 109H525.406V145ZM574.875 110.375C572.458 112.792 571.25 115.708 571.25 119.125C571.25 122.542 572.458 125.458 574.875 127.875C577.292 130.292 580.208 131.5 583.625 131.5C587.042 131.5 589.958 130.292 592.375 127.875C594.792 125.458 596 122.542 596 119.125C596 115.708 594.792 112.792 592.375 110.375C589.958 107.958 587.042 106.75 583.625 106.75C580.208 106.75 577.292 107.958 574.875 110.375ZM570.156 124.812C569.385 123 569 121.104 569 119.125C569 117.146 569.385 115.26 570.156 113.469C570.927 111.656 571.969 110.094 573.281 108.781C574.594 107.469 576.146 106.427 577.938 105.656C579.75 104.885 581.646 104.5 583.625 104.5C585.604 104.5 587.49 104.885 589.281 105.656C591.094 106.427 592.656 107.469 593.969 108.781C595.281 110.094 596.323 111.656 597.094 113.469C597.865 115.26 598.25 117.146 598.25 119.125C598.25 121.104 597.865 123 597.094 124.812C596.323 126.604 595.281 128.156 593.969 129.469C592.656 130.781 591.094 131.823 589.281 132.594C587.49 133.365 585.604 133.75 583.625 133.75C581.646 133.75 579.75 133.365 577.938 132.594C576.146 131.823 574.594 130.781 573.281 129.469C571.969 128.156 570.927 126.604 570.156 124.812ZM569 110.656C567.5 113.24 566.75 116.062 566.75 119.125C566.75 122.188 567.5 125.01 569 127.594C570.521 130.177 572.573 132.229 575.156 133.75C577.74 135.25 580.562 136 583.625 136C586.688 136 589.51 135.25 592.094 133.75C594.677 132.229 596.719 130.177 598.219 127.594C599.74 125.01 600.5 122.188 600.5 119.125C600.5 116.062 599.74 113.24 598.219 110.656C596.719 108.073 594.677 106.031 592.094 104.531C589.51 103.01 586.688 102.25 583.625 102.25C580.562 102.25 577.74 103.01 575.156 104.531C572.573 106.031 570.521 108.073 569 110.656ZM567.062 128.719C565.354 125.781 564.5 122.583 564.5 119.125C564.5 115.667 565.354 112.469 567.062 109.531C568.771 106.594 571.094 104.271 574.031 102.562C576.969 100.854 580.167 100 583.625 100C587.083 100 590.281 100.854 593.219 102.562C596.156 104.271 598.479 106.594 600.188 109.531C601.896 112.469 602.75 115.667 602.75 119.125C602.75 122.583 601.896 125.781 600.188 128.719C598.479 131.656 596.156 133.979 593.219 135.688C590.281 137.396 587.083 138.25 583.625 138.25C580.167 138.25 576.969 137.396 574.031 135.688C571.094 133.979 568.771 131.656 567.062 128.719ZM563.938 110.812C562.812 113.458 562.25 116.229 562.25 119.125C562.25 122.021 562.812 124.792 563.938 127.438C565.062 130.083 566.573 132.365 568.469 134.281C570.385 136.177 572.667 137.688 575.312 138.812C577.958 139.938 580.729 140.5 583.625 140.5C586.521 140.5 589.292 139.938 591.938 138.812C594.583 137.688 596.854 136.177 598.75 134.281C600.667 132.365 602.188 130.083 603.312 127.438C604.438 124.792 605 122.021 605 119.125C605 116.229 604.438 113.458 603.312 110.812C602.188 108.167 600.667 105.896 598.75 104C596.854 102.083 594.583 100.562 591.938 99.4375C589.292 98.3125 586.521 97.75 583.625 97.75C580.729 97.75 577.958 98.3125 575.312 99.4375C572.667 100.562 570.385 102.083 568.469 104C566.573 105.896 565.062 108.167 563.938 110.812ZM563.156 130.969C561.052 127.344 560 123.396 560 119.125C560 114.854 561.052 110.906 563.156 107.281C565.281 103.656 568.156 100.792 571.781 98.6875C575.406 96.5625 579.354 95.5 583.625 95.5C587.896 95.5 591.844 96.5625 595.469 98.6875C599.094 100.792 601.958 103.656 604.062 107.281C606.188 110.906 607.25 114.854 607.25 119.125C607.25 123.396 606.188 127.344 604.062 130.969C601.958 134.594 599.094 137.469 595.469 139.594C591.844 141.698 587.896 142.75 583.625 142.75C579.354 142.75 575.406 141.698 571.781 139.594C568.156 137.469 565.281 134.594 563.156 130.969ZM559.781 109.094C558.427 112.281 557.75 115.625 557.75 119.125C557.75 122.625 558.427 125.979 559.781 129.188C561.156 132.375 563 135.125 565.312 137.438C567.625 139.75 570.375 141.594 573.562 142.969C576.771 144.323 580.125 145 583.625 145C587.125 145 590.469 144.323 593.656 142.969C596.865 141.594 599.625 139.75 601.938 137.438C604.25 135.125 606.083 132.375 607.438 129.188C608.812 125.979 609.5 122.625 609.5 119.125C609.5 115.625 608.812 112.281 607.438 109.094C606.083 105.885 604.25 103.125 601.938 100.812C599.625 98.5 596.865 96.6667 593.656 95.3125C590.469 93.9375 587.125 93.25 583.625 93.25C580.125 93.25 576.771 93.9375 573.562 95.3125C570.375 96.6667 567.625 98.5 565.312 100.812C563 103.125 561.156 105.885 559.781 109.094ZM557.719 130.062C556.24 126.583 555.5 122.938 555.5 119.125C555.5 115.312 556.24 111.677 557.719 108.219C559.219 104.74 561.219 101.75 563.719 99.25C566.24 96.7292 569.229 94.7292 572.688 93.25C576.167 91.75 579.812 91 583.625 91C587.438 91 591.073 91.75 594.531 93.25C598.01 94.7292 601 96.7292 603.5 99.25C606.021 101.75 608.021 104.74 609.5 108.219C611 111.677 611.75 115.312 611.75 119.125C611.75 122.938 611 126.583 609.5 130.062C608.021 133.521 606.021 136.51 603.5 139.031C601 141.531 598.01 143.521 594.531 145C591.073 146.5 587.438 147.25 583.625 147.25C579.812 147.25 576.167 146.5 572.688 145C569.229 143.521 566.24 141.531 563.719 139.031C561.219 136.51 559.219 133.521 557.719 130.062ZM635.5 129.812L636.406 127.562H644.094L645 129.812H635.5ZM633.75 134.312L634.625 132.062H645.844L646.812 134.312H633.75ZM632 138.812L632.875 136.562H647.625L648.562 138.812H632ZM613.719 145H611.281L631.75 93.25H634.188L654.625 145H652.219L632.969 96.2812L613.719 145ZM633.25 101.625L634.531 104.5L618.531 145H616.125L633.25 101.625ZM635.75 107.562L636.938 110.656L623.406 145H620.969L635.75 107.562ZM638.125 113.75L639.312 116.906L628.219 145H625.812L638.125 113.75ZM669.156 145H666.719L646.281 93.25H648.688L669.156 145ZM643.844 93.25L664.312 145H661.906L641.438 93.25H643.844ZM639 93.25L659.469 145H657.031L636.594 93.25H639ZM673.094 93.25H675.344V145H673.094V93.25ZM686.594 93.25H688.844V133.75H706.844V136H688.844V138.25H706.844V140.5H688.844V142.75H706.844V145H686.594V93.25ZM682.094 93.25H684.344V145H682.094V93.25ZM677.594 93.25H679.844V145H677.594V93.25ZM711.844 93.25H714.094V145H711.844V93.25ZM725.344 93.25H727.594V133.75H745.594V136H727.594V138.25H745.594V140.5H727.594V142.75H745.594V145H725.344V93.25ZM720.844 93.25H723.094V145H720.844V93.25ZM716.344 93.25H718.594V145H716.344V93.25ZM764.094 93.25H766.344V145H764.094V93.25ZM759.594 93.25H761.844V145H759.594V93.25ZM755.094 93.25H757.344V145H755.094V93.25ZM750.594 93.25H752.844V145H750.594V93.25ZM783.531 145H781.281V93.25H783.531V145ZM779.031 145H776.781V93.25H779.031V145ZM774.531 145H772.281V93.25H774.531V145ZM788.031 133.75H811.969V136H788.031V138.25H811.969V140.5H788.031V142.75H811.969V145H785.781V93.25H811.969V95.5H788.031V97.75H811.969V100H788.031V102.25H811.969V104.5H788.031V113.5H800.312V115.75H788.031V118H800.312V120.25H788.031V122.5H800.312V124.75H788.031V133.75ZM838.438 113.5H834.656C833.052 113.5 831.896 113.094 831.188 112.281C830.479 111.448 830.125 110.354 830.125 109C830.125 106 832.365 104.5 836.844 104.5C841.052 104.5 844.219 105.125 846.344 106.375L844.531 107.75C843.073 107.083 840.51 106.75 836.844 106.75C835.052 106.75 833.844 106.948 833.219 107.344C832.615 107.74 832.312 108.292 832.312 109C832.312 109.708 832.479 110.26 832.812 110.656C833.146 111.052 833.76 111.25 834.656 111.25H838.531C841.344 111.25 843.875 111.729 846.125 112.688C848.396 113.646 850.26 114.958 851.719 116.625C853.177 118.271 854.292 120.177 855.062 122.344C855.833 124.49 856.219 126.792 856.219 129.25C856.219 131.25 855.938 133.146 855.375 134.938C854.812 136.729 853.958 138.375 852.812 139.875C851.688 141.375 850.323 142.677 848.719 143.781C847.135 144.865 845.24 145.708 843.031 146.312C840.844 146.938 838.469 147.25 835.906 147.25C831.885 147.25 828.115 146.635 824.594 145.406C821.094 144.198 818.177 142.5 815.844 140.312L817.656 138.969C819.781 140.885 822.438 142.375 825.625 143.438C828.833 144.479 832.26 145 835.906 145C838.76 145 841.333 144.594 843.625 143.781C845.938 142.948 847.833 141.812 849.312 140.375C850.812 138.938 851.958 137.271 852.75 135.375C853.562 133.479 853.969 131.438 853.969 129.25C853.969 126.354 853.385 123.74 852.219 121.406C851.052 119.052 849.271 117.146 846.875 115.688C844.5 114.229 841.688 113.5 838.438 113.5ZM834.656 115.75H838.219C842.448 115.75 845.75 117.042 848.125 119.625C850.521 122.208 851.719 125.417 851.719 129.25C851.719 133.146 850.333 136.375 847.562 138.938C844.792 141.479 840.906 142.75 835.906 142.75C832.573 142.75 829.458 142.292 826.562 141.375C823.667 140.458 821.26 139.167 819.344 137.5L821.094 136.094C822.802 137.49 824.948 138.573 827.531 139.344C830.135 140.115 832.927 140.5 835.906 140.5C840.302 140.5 843.656 139.448 845.969 137.344C848.302 135.24 849.469 132.542 849.469 129.25C849.469 126 848.49 123.312 846.531 121.188C844.594 119.062 841.812 118 838.188 118H834.656C831.615 118 829.333 117.167 827.812 115.5C826.292 113.833 825.531 111.667 825.531 109C825.531 106.333 826.469 104.167 828.344 102.5C830.24 100.833 833.073 100 836.844 100C839.49 100 841.948 100.312 844.219 100.938C846.49 101.542 848.365 102.417 849.844 103.562L848.062 104.938C845.458 103.146 841.719 102.25 836.844 102.25C833.698 102.25 831.396 102.875 829.938 104.125C828.5 105.354 827.781 106.979 827.781 109C827.781 111.042 828.312 112.677 829.375 113.906C830.458 115.135 832.219 115.75 834.656 115.75ZM834.656 120.25H838.094C841.135 120.25 843.417 121.094 844.938 122.781C846.458 124.469 847.219 126.625 847.219 129.25C847.219 131.917 846.271 134.083 844.375 135.75C842.5 137.417 839.677 138.25 835.906 138.25C833.26 138.25 830.792 137.948 828.5 137.344C826.229 136.719 824.354 135.833 822.875 134.688L824.656 133.312C827.26 135.104 831.01 136 835.906 136C839.052 136 841.344 135.385 842.781 134.156C844.24 132.906 844.969 131.271 844.969 129.25C844.969 127.229 844.427 125.604 843.344 124.375C842.26 123.125 840.5 122.5 838.062 122.5H834.656C830.385 122.5 827.042 121.229 824.625 118.688C822.229 116.125 821.031 112.896 821.031 109C821.031 105.104 822.417 101.885 825.188 99.3438C827.958 96.7812 831.844 95.5 836.844 95.5C840.177 95.5 843.281 95.9583 846.156 96.875C849.052 97.7917 851.458 99.0833 853.375 100.75L851.625 102.156C849.917 100.76 847.771 99.6771 845.188 98.9062C842.604 98.1354 839.823 97.75 836.844 97.75C832.448 97.75 829.083 98.8021 826.75 100.906C824.438 103.01 823.281 105.708 823.281 109C823.281 112.271 824.26 114.969 826.219 117.094C828.177 119.198 830.99 120.25 834.656 120.25ZM834.656 124.75H838.094C839.698 124.75 840.854 125.167 841.562 126C842.271 126.833 842.625 127.917 842.625 129.25C842.625 132.25 840.385 133.75 835.906 133.75C831.677 133.75 828.5 133.125 826.375 131.875L828.188 130.5C829.646 131.167 832.219 131.5 835.906 131.5C837.698 131.5 838.896 131.302 839.5 130.906C840.125 130.51 840.438 129.958 840.438 129.25C840.438 128.562 840.26 128.021 839.906 127.625C839.573 127.208 838.948 127 838.031 127H834.656C831.781 127 829.177 126.531 826.844 125.594C824.531 124.656 822.625 123.365 821.125 121.719C819.646 120.073 818.51 118.167 817.719 116C816.927 113.833 816.531 111.5 816.531 109C816.531 107 816.812 105.104 817.375 103.312C817.938 101.521 818.781 99.875 819.906 98.375C821.052 96.875 822.417 95.5833 824 94.5C825.604 93.3958 827.5 92.5417 829.688 91.9375C831.896 91.3125 834.281 91 836.844 91C840.865 91 844.625 91.6146 848.125 92.8438C851.625 94.0521 854.542 95.75 856.875 97.9375L855.062 99.2812C852.938 97.3646 850.281 95.8854 847.094 94.8438C843.906 93.7812 840.49 93.25 836.844 93.25C833.99 93.25 831.406 93.6667 829.094 94.5C826.802 95.3125 824.906 96.4375 823.406 97.875C821.927 99.3125 820.781 100.979 819.969 102.875C819.177 104.771 818.781 106.812 818.781 109C818.781 111.938 819.375 114.583 820.562 116.938C821.75 119.292 823.562 121.188 826 122.625C828.438 124.042 831.323 124.75 834.656 124.75Z" fill="black"/>
</svg>
