<svg width="233" height="29" viewBox="0 0 233 29" fill="none" xmlns="http://www.w3.org/2000/svg">
<path d="M12.625 19.4062L13.0781 18.2812H16.9219L17.375 19.4062H12.625ZM11.75 21.6562L12.1875 20.5312H17.7969L18.2812 21.6562H11.75ZM10.875 23.9062L11.3125 22.7812H18.6875L19.1562 23.9062H10.875ZM1.73438 27H0.515625L10.75 1.125H11.9688L22.1875 27H20.9844L11.3594 2.64062L1.73438 27ZM11.5 5.3125L12.1406 6.75L4.14062 27H2.9375L11.5 5.3125ZM12.75 8.28125L13.3438 9.82812L6.57812 27H5.35938L12.75 8.28125ZM13.9375 11.375L14.5312 12.9531L8.98438 27H7.78125L13.9375 11.375ZM29.4531 27H28.2344L18.0156 1.125H19.2188L29.4531 27ZM16.7969 1.125L27.0312 27H25.8281L15.5938 1.125H16.7969ZM14.375 1.125L24.6094 27H23.3906L13.1719 1.125H14.375ZM50.4375 13.4844H51.5625V27H50.4375V13.4844ZM54.9375 13.4844H56.0625V27H54.9375V13.4844ZM52.6875 13.4844H53.8125V27H52.6875V13.4844ZM49.3125 13.4844V27C47.3333 27.75 45.2812 28.125 43.1562 28.125C41.3125 28.125 39.5469 27.7865 37.8594 27.1094C36.1719 26.4323 34.6875 25.4948 33.4062 24.2969C32.125 23.0885 31.099 21.599 30.3281 19.8281C29.5677 18.0469 29.1875 16.125 29.1875 14.0625C29.1875 12.1562 29.5573 10.3385 30.2969 8.60938C31.0469 6.86979 32.0469 5.375 33.2969 4.125C34.5573 2.86458 36.0521 1.86458 37.7812 1.125C39.5208 0.375 41.3438 0 43.25 0C45.625 0 47.8333 0.552083 49.875 1.65625C51.9167 2.76042 53.5833 4.26042 54.875 6.15625L53.9375 6.76562C52.75 5.02604 51.2135 3.65104 49.3281 2.64062C47.4531 1.63021 45.4271 1.125 43.25 1.125C41.5 1.125 39.8229 1.46875 38.2188 2.15625C36.625 2.83333 35.25 3.75 34.0938 4.90625C32.9375 6.0625 32.0156 7.44271 31.3281 9.04688C30.651 10.6406 30.3125 12.3125 30.3125 14.0625C30.3125 15.9479 30.6615 17.7083 31.3594 19.3438C32.0677 20.9792 33.0052 22.349 34.1719 23.4531C35.349 24.5573 36.7135 25.4271 38.2656 26.0625C39.8177 26.6875 41.4323 27 43.1094 27C44.8698 27 46.5625 26.724 48.1875 26.1719V25.0938C46.6354 25.6146 45.0052 25.875 43.2969 25.875C42.0573 25.875 40.849 25.7031 39.6719 25.3594C38.5052 25.0052 37.4219 24.4896 36.4219 23.8125C35.4323 23.125 34.5625 22.3125 33.8125 21.375C33.0729 20.4271 32.4896 19.3281 32.0625 18.0781C31.6458 16.8177 31.4375 15.4792 31.4375 14.0625C31.4375 11.9271 31.9635 9.95312 33.0156 8.14062C34.0781 6.32812 35.5156 4.89583 37.3281 3.84375C39.1406 2.78125 41.1146 2.25 43.25 2.25C45.25 2.25 47.1094 2.71875 48.8281 3.65625C50.5469 4.58333 51.9479 5.84375 53.0312 7.4375L52.0938 8.04688C51.1146 6.60938 49.8438 5.47396 48.2812 4.64062C46.7292 3.79688 45.0521 3.375 43.25 3.375C41.8021 3.375 40.4167 3.65625 39.0938 4.21875C37.7708 4.78125 36.6302 5.54167 35.6719 6.5C34.724 7.44792 33.9688 8.58333 33.4062 9.90625C32.8438 11.2292 32.5625 12.6146 32.5625 14.0625C32.5625 15.3646 32.75 16.5885 33.125 17.7344C33.5104 18.8698 34.0365 19.8646 34.7031 20.7188C35.3802 21.5625 36.1667 22.2917 37.0625 22.9062C37.9583 23.5104 38.9323 23.9688 39.9844 24.2812C41.0469 24.5938 42.1354 24.75 43.25 24.75C44.9792 24.75 46.625 24.4583 48.1875 23.875V22.75C46.6458 23.3438 45.0365 23.6406 43.3594 23.6406C42.0885 23.6406 40.875 23.4271 39.7188 23C38.5625 22.5625 37.5312 21.9479 36.625 21.1562C35.7292 20.3646 35.0156 19.3542 34.4844 18.125C33.9531 16.8958 33.6875 15.5417 33.6875 14.0625C33.6875 12.3333 34.1146 10.7344 34.9688 9.26562C35.8229 7.79688 36.9844 6.63542 38.4531 5.78125C39.9219 4.92708 41.5208 4.5 43.25 4.5C44.8646 4.5 46.3646 4.875 47.75 5.625C49.1458 6.375 50.2812 7.39583 51.1562 8.6875L50.2188 9.29688C49.4479 8.17188 48.4479 7.28125 47.2188 6.625C46 5.95833 44.6771 5.625 43.25 5.625C41.7188 5.625 40.3073 6.00521 39.0156 6.76562C37.724 7.51562 36.6979 8.53646 35.9375 9.82812C35.1875 11.1198 34.8125 12.5312 34.8125 14.0625C34.8125 15.125 34.9635 16.1146 35.2656 17.0312C35.5677 17.9479 35.9844 18.7396 36.5156 19.4062C37.0469 20.0729 37.6667 20.6406 38.375 21.1094C39.0938 21.5781 39.8646 21.9323 40.6875 22.1719C41.5104 22.401 42.3646 22.5156 43.25 22.5156C45.0104 22.5156 46.6562 22.1667 48.1875 21.4688V20.3906C46.7083 21.0469 45.1094 21.375 43.3906 21.375C42.401 21.375 41.4688 21.224 40.5938 20.9219C39.7188 20.6198 38.9271 20.1771 38.2188 19.5938C37.5208 19.0104 36.9635 18.2448 36.5469 17.2969C36.1406 16.3385 35.9375 15.2604 35.9375 14.0625C35.9375 13.0729 36.1302 12.1302 36.5156 11.2344C36.901 10.3281 37.4219 9.54688 38.0781 8.89062C38.7344 8.23438 39.5104 7.71354 40.4062 7.32812C41.3125 6.94271 42.2604 6.75 43.25 6.75C44.4896 6.75 45.6406 7.04167 46.7031 7.625C47.7656 8.19792 48.6302 8.97917 49.2969 9.96875L48.375 10.5781C47.8125 9.74479 47.0781 9.08854 46.1719 8.60938C45.276 8.11979 44.3021 7.875 43.25 7.875C41.5417 7.875 40.0833 8.47917 38.875 9.6875C37.6667 10.8958 37.0625 12.3542 37.0625 14.0625C37.0625 15.1146 37.2344 16.0469 37.5781 16.8594C37.9219 17.6615 38.3906 18.3073 38.9844 18.7969C39.5885 19.276 40.2552 19.6406 40.9844 19.8906C41.724 20.1302 42.5156 20.25 43.3594 20.25C45.0885 20.25 46.6979 19.8906 48.1875 19.1719V13.4844H49.3125ZM67.3281 14.125H74.1094C75.1406 14.125 76.0104 13.7917 76.7188 13.125C77.4375 12.4583 77.7969 11.5104 77.7969 10.2812C77.7969 9.375 77.4219 8.5625 76.6719 7.84375C75.9219 7.11458 75.0677 6.75 74.1094 6.75H64.4531V27H63.3281V5.625H74.1094C75.3802 5.625 76.5 6.09896 77.4688 7.04688C78.4375 7.98438 78.9219 9.0625 78.9219 10.2812C78.9219 11.7812 78.4531 12.9844 77.5156 13.8906C76.5781 14.7969 75.4427 15.25 74.1094 15.25H67.3281V14.125ZM67.3281 16.375H74.1094C75.7344 16.375 77.1302 15.8073 78.2969 14.6719C79.4635 13.526 80.0469 12.0625 80.0469 10.2812C80.0469 8.75 79.4479 7.40625 78.25 6.25C77.0625 5.08333 75.6823 4.5 74.1094 4.5H62.2031V27H61.0781V3.375H74.1094C75.349 3.375 76.5104 3.69271 77.5938 4.32812C78.6875 4.96354 79.5573 5.81771 80.2031 6.89062C80.849 7.95312 81.1719 9.08333 81.1719 10.2812C81.1719 12.3333 80.474 14.0521 79.0781 15.4375C77.6927 16.8125 76.0365 17.5 74.1094 17.5H67.3281V16.375ZM67.3281 18.625H74.1094C75.5677 18.625 76.9219 18.2656 78.1719 17.5469C79.4219 16.8281 80.4219 15.8281 81.1719 14.5469C81.9219 13.2552 82.2969 11.8333 82.2969 10.2812C82.2969 8.875 81.9219 7.55729 81.1719 6.32812C80.4323 5.08854 79.4323 4.09896 78.1719 3.35938C76.9115 2.61979 75.5573 2.25 74.1094 2.25H59.9531V27H58.8281V1.125H74.1094C75.7448 1.125 77.2812 1.54688 78.7188 2.39062C80.1562 3.22396 81.2969 4.34896 82.1406 5.76562C82.9948 7.17188 83.4219 8.67708 83.4219 10.2812C83.4219 12.1354 83.0208 13.7656 82.2188 15.1719C81.4271 16.5781 80.349 17.6771 78.9844 18.4688L81.8906 27H80.7031L77.9219 19C77.5052 19.1667 77.1875 19.2812 76.9688 19.3438L79.5781 27H78.3906L75.8438 19.6094C75.75 19.6302 75.4167 19.6667 74.8438 19.7188L77.2656 27H76.0781L73.6875 19.75H72.6719L74.9531 27H73.7656L71.4688 19.75H67.3281V18.625ZM66.7031 27H65.5781V7.875H74.1094C74.8073 7.875 75.4062 8.11458 75.9062 8.59375C76.4167 9.0625 76.6719 9.625 76.6719 10.2812C76.6719 12.0938 75.8177 13 74.1094 13H67.3281V11.875H74.1094C74.5573 11.875 74.9062 11.7604 75.1562 11.5312C75.4167 11.2917 75.5469 10.875 75.5469 10.2812C75.5469 9.91667 75.4062 9.61458 75.125 9.375C74.8542 9.125 74.5156 9 74.1094 9H66.7031V27ZM91.4375 9.6875C90.2292 10.8958 89.625 12.3542 89.625 14.0625C89.625 15.7708 90.2292 17.2292 91.4375 18.4375C92.6458 19.6458 94.1042 20.25 95.8125 20.25C97.5208 20.25 98.9792 19.6458 100.188 18.4375C101.396 17.2292 102 15.7708 102 14.0625C102 12.3542 101.396 10.8958 100.188 9.6875C98.9792 8.47917 97.5208 7.875 95.8125 7.875C94.1042 7.875 92.6458 8.47917 91.4375 9.6875ZM89.0781 16.9062C88.6927 16 88.5 15.0521 88.5 14.0625C88.5 13.0729 88.6927 12.1302 89.0781 11.2344C89.4635 10.3281 89.9844 9.54688 90.6406 8.89062C91.2969 8.23438 92.0729 7.71354 92.9688 7.32812C93.875 6.94271 94.8229 6.75 95.8125 6.75C96.8021 6.75 97.7448 6.94271 98.6406 7.32812C99.5469 7.71354 100.328 8.23438 100.984 8.89062C101.641 9.54688 102.161 10.3281 102.547 11.2344C102.932 12.1302 103.125 13.0729 103.125 14.0625C103.125 15.0521 102.932 16 102.547 16.9062C102.161 17.8021 101.641 18.5781 100.984 19.2344C100.328 19.8906 99.5469 20.4115 98.6406 20.7969C97.7448 21.1823 96.8021 21.375 95.8125 21.375C94.8229 21.375 93.875 21.1823 92.9688 20.7969C92.0729 20.4115 91.2969 19.8906 90.6406 19.2344C89.9844 18.5781 89.4635 17.8021 89.0781 16.9062ZM88.5 9.82812C87.75 11.1198 87.375 12.5312 87.375 14.0625C87.375 15.5938 87.75 17.0052 88.5 18.2969C89.2604 19.5885 90.2865 20.6146 91.5781 21.375C92.8698 22.125 94.2812 22.5 95.8125 22.5C97.3438 22.5 98.7552 22.125 100.047 21.375C101.339 20.6146 102.359 19.5885 103.109 18.2969C103.87 17.0052 104.25 15.5938 104.25 14.0625C104.25 12.5312 103.87 11.1198 103.109 9.82812C102.359 8.53646 101.339 7.51562 100.047 6.76562C98.7552 6.00521 97.3438 5.625 95.8125 5.625C94.2812 5.625 92.8698 6.00521 91.5781 6.76562C90.2865 7.51562 89.2604 8.53646 88.5 9.82812ZM87.5312 18.8594C86.6771 17.3906 86.25 15.7917 86.25 14.0625C86.25 12.3333 86.6771 10.7344 87.5312 9.26562C88.3854 7.79688 89.5469 6.63542 91.0156 5.78125C92.4844 4.92708 94.0833 4.5 95.8125 4.5C97.5417 4.5 99.1406 4.92708 100.609 5.78125C102.078 6.63542 103.24 7.79688 104.094 9.26562C104.948 10.7344 105.375 12.3333 105.375 14.0625C105.375 15.7917 104.948 17.3906 104.094 18.8594C103.24 20.3281 102.078 21.4896 100.609 22.3438C99.1406 23.1979 97.5417 23.625 95.8125 23.625C94.0833 23.625 92.4844 23.1979 91.0156 22.3438C89.5469 21.4896 88.3854 20.3281 87.5312 18.8594ZM85.9688 9.90625C85.4062 11.2292 85.125 12.6146 85.125 14.0625C85.125 15.5104 85.4062 16.8958 85.9688 18.2188C86.5312 19.5417 87.2865 20.6823 88.2344 21.6406C89.1927 22.5885 90.3333 23.3438 91.6562 23.9062C92.9792 24.4688 94.3646 24.75 95.8125 24.75C97.2604 24.75 98.6458 24.4688 99.9688 23.9062C101.292 23.3438 102.427 22.5885 103.375 21.6406C104.333 20.6823 105.094 19.5417 105.656 18.2188C106.219 16.8958 106.5 15.5104 106.5 14.0625C106.5 12.6146 106.219 11.2292 105.656 9.90625C105.094 8.58333 104.333 7.44792 103.375 6.5C102.427 5.54167 101.292 4.78125 99.9688 4.21875C98.6458 3.65625 97.2604 3.375 95.8125 3.375C94.3646 3.375 92.9792 3.65625 91.6562 4.21875C90.3333 4.78125 89.1927 5.54167 88.2344 6.5C87.2865 7.44792 86.5312 8.58333 85.9688 9.90625ZM85.5781 19.9844C84.526 18.1719 84 16.1979 84 14.0625C84 11.9271 84.526 9.95312 85.5781 8.14062C86.6406 6.32812 88.0781 4.89583 89.8906 3.84375C91.7031 2.78125 93.6771 2.25 95.8125 2.25C97.9479 2.25 99.9219 2.78125 101.734 3.84375C103.547 4.89583 104.979 6.32812 106.031 8.14062C107.094 9.95312 107.625 11.9271 107.625 14.0625C107.625 16.1979 107.094 18.1719 106.031 19.9844C104.979 21.7969 103.547 23.2344 101.734 24.2969C99.9219 25.349 97.9479 25.875 95.8125 25.875C93.6771 25.875 91.7031 25.349 89.8906 24.2969C88.0781 23.2344 86.6406 21.7969 85.5781 19.9844ZM83.8906 9.04688C83.2135 10.6406 82.875 12.3125 82.875 14.0625C82.875 15.8125 83.2135 17.4896 83.8906 19.0938C84.5781 20.6875 85.5 22.0625 86.6562 23.2188C87.8125 24.375 89.1875 25.2969 90.7812 25.9844C92.3854 26.6615 94.0625 27 95.8125 27C97.5625 27 99.2344 26.6615 100.828 25.9844C102.432 25.2969 103.812 24.375 104.969 23.2188C106.125 22.0625 107.042 20.6875 107.719 19.0938C108.406 17.4896 108.75 15.8125 108.75 14.0625C108.75 12.3125 108.406 10.6406 107.719 9.04688C107.042 7.44271 106.125 6.0625 104.969 4.90625C103.812 3.75 102.432 2.83333 100.828 2.15625C99.2344 1.46875 97.5625 1.125 95.8125 1.125C94.0625 1.125 92.3854 1.46875 90.7812 2.15625C89.1875 2.83333 87.8125 3.75 86.6562 4.90625C85.5 6.0625 84.5781 7.44271 83.8906 9.04688ZM82.8594 19.5312C82.1198 17.7917 81.75 15.9688 81.75 14.0625C81.75 12.1562 82.1198 10.3385 82.8594 8.60938C83.6094 6.86979 84.6094 5.375 85.8594 4.125C87.1198 2.86458 88.6146 1.86458 90.3438 1.125C92.0833 0.375 93.9062 0 95.8125 0C97.7188 0 99.5365 0.375 101.266 1.125C103.005 1.86458 104.5 2.86458 105.75 4.125C107.01 5.375 108.01 6.86979 108.75 8.60938C109.5 10.3385 109.875 12.1562 109.875 14.0625C109.875 15.9688 109.5 17.7917 108.75 19.5312C108.01 21.2604 107.01 22.7552 105.75 24.0156C104.5 25.2656 103.005 26.2604 101.266 27C99.5365 27.75 97.7188 28.125 95.8125 28.125C93.9062 28.125 92.0833 27.75 90.3438 27C88.6146 26.2604 87.1198 25.2656 85.8594 24.0156C84.6094 22.7552 83.6094 21.2604 82.8594 19.5312ZM121.75 19.4062L122.203 18.2812H126.047L126.5 19.4062H121.75ZM120.875 21.6562L121.312 20.5312H126.922L127.406 21.6562H120.875ZM120 23.9062L120.438 22.7812H127.812L128.281 23.9062H120ZM110.859 27H109.641L119.875 1.125H121.094L131.312 27H130.109L120.484 2.64062L110.859 27ZM120.625 5.3125L121.266 6.75L113.266 27H112.062L120.625 5.3125ZM121.875 8.28125L122.469 9.82812L115.703 27H114.484L121.875 8.28125ZM123.062 11.375L123.656 12.9531L118.109 27H116.906L123.062 11.375ZM138.578 27H137.359L127.141 1.125H128.344L138.578 27ZM125.922 1.125L136.156 27H134.953L124.719 1.125H125.922ZM123.5 1.125L133.734 27H132.516L122.297 1.125H123.5ZM140.547 1.125H141.672V27H140.547V1.125ZM147.297 1.125H148.422V21.375H157.422V22.5H148.422V23.625H157.422V24.75H148.422V25.875H157.422V27H147.297V1.125ZM145.047 1.125H146.172V27H145.047V1.125ZM142.797 1.125H143.922V27H142.797V1.125ZM159.922 1.125H161.047V27H159.922V1.125ZM166.672 1.125H167.797V21.375H176.797V22.5H167.797V23.625H176.797V24.75H167.797V25.875H176.797V27H166.672V1.125ZM164.422 1.125H165.547V27H164.422V1.125ZM162.172 1.125H163.297V27H162.172V1.125ZM186.047 1.125H187.172V27H186.047V1.125ZM183.797 1.125H184.922V27H183.797V1.125ZM181.547 1.125H182.672V27H181.547V1.125ZM179.297 1.125H180.422V27H179.297V1.125ZM195.766 27H194.641V1.125H195.766V27ZM193.516 27H192.391V1.125H193.516V27ZM191.266 27H190.141V1.125H191.266V27ZM198.016 21.375H209.984V22.5H198.016V23.625H209.984V24.75H198.016V25.875H209.984V27H196.891V1.125H209.984V2.25H198.016V3.375H209.984V4.5H198.016V5.625H209.984V6.75H198.016V11.25H204.156V12.375H198.016V13.5H204.156V14.625H198.016V15.75H204.156V16.875H198.016V21.375ZM223.219 11.25H221.328C220.526 11.25 219.948 11.0469 219.594 10.6406C219.24 10.224 219.062 9.67708 219.062 9C219.062 7.5 220.182 6.75 222.422 6.75C224.526 6.75 226.109 7.0625 227.172 7.6875L226.266 8.375C225.536 8.04167 224.255 7.875 222.422 7.875C221.526 7.875 220.922 7.97396 220.609 8.17188C220.307 8.36979 220.156 8.64583 220.156 9C220.156 9.35417 220.24 9.63021 220.406 9.82812C220.573 10.026 220.88 10.125 221.328 10.125H223.266C224.672 10.125 225.938 10.3646 227.062 10.8438C228.198 11.3229 229.13 11.9792 229.859 12.8125C230.589 13.6354 231.146 14.5885 231.531 15.6719C231.917 16.7448 232.109 17.8958 232.109 19.125C232.109 20.125 231.969 21.0729 231.688 21.9688C231.406 22.8646 230.979 23.6875 230.406 24.4375C229.844 25.1875 229.161 25.8385 228.359 26.3906C227.568 26.9323 226.62 27.3542 225.516 27.6562C224.422 27.9688 223.234 28.125 221.953 28.125C219.943 28.125 218.057 27.8177 216.297 27.2031C214.547 26.599 213.089 25.75 211.922 24.6562L212.828 23.9844C213.891 24.9427 215.219 25.6875 216.812 26.2188C218.417 26.7396 220.13 27 221.953 27C223.38 27 224.667 26.7969 225.812 26.3906C226.969 25.974 227.917 25.4062 228.656 24.6875C229.406 23.9688 229.979 23.1354 230.375 22.1875C230.781 21.2396 230.984 20.2188 230.984 19.125C230.984 17.6771 230.693 16.3698 230.109 15.2031C229.526 14.026 228.635 13.0729 227.438 12.3438C226.25 11.6146 224.844 11.25 223.219 11.25ZM221.328 12.375H223.109C225.224 12.375 226.875 13.0208 228.062 14.3125C229.26 15.6042 229.859 17.2083 229.859 19.125C229.859 21.0729 229.167 22.6875 227.781 23.9688C226.396 25.2396 224.453 25.875 221.953 25.875C220.286 25.875 218.729 25.6458 217.281 25.1875C215.833 24.7292 214.63 24.0833 213.672 23.25L214.547 22.5469C215.401 23.2448 216.474 23.7865 217.766 24.1719C219.068 24.5573 220.464 24.75 221.953 24.75C224.151 24.75 225.828 24.224 226.984 23.1719C228.151 22.1198 228.734 20.7708 228.734 19.125C228.734 17.5 228.245 16.1562 227.266 15.0938C226.297 14.0312 224.906 13.5 223.094 13.5H221.328C219.807 13.5 218.667 13.0833 217.906 12.25C217.146 11.4167 216.766 10.3333 216.766 9C216.766 7.66667 217.234 6.58333 218.172 5.75C219.12 4.91667 220.536 4.5 222.422 4.5C223.745 4.5 224.974 4.65625 226.109 4.96875C227.245 5.27083 228.182 5.70833 228.922 6.28125L228.031 6.96875C226.729 6.07292 224.859 5.625 222.422 5.625C220.849 5.625 219.698 5.9375 218.969 6.5625C218.25 7.17708 217.891 7.98958 217.891 9C217.891 10.0208 218.156 10.8385 218.688 11.4531C219.229 12.0677 220.109 12.375 221.328 12.375ZM221.328 14.625H223.047C224.568 14.625 225.708 15.0469 226.469 15.8906C227.229 16.7344 227.609 17.8125 227.609 19.125C227.609 20.4583 227.135 21.5417 226.188 22.375C225.25 23.2083 223.839 23.625 221.953 23.625C220.63 23.625 219.396 23.474 218.25 23.1719C217.115 22.8594 216.177 22.4167 215.438 21.8438L216.328 21.1562C217.63 22.0521 219.505 22.5 221.953 22.5C223.526 22.5 224.672 22.1927 225.391 21.5781C226.12 20.9531 226.484 20.1354 226.484 19.125C226.484 18.1146 226.214 17.3021 225.672 16.6875C225.13 16.0625 224.25 15.75 223.031 15.75H221.328C219.193 15.75 217.521 15.1146 216.312 13.8438C215.115 12.5625 214.516 10.9479 214.516 9C214.516 7.05208 215.208 5.44271 216.594 4.17188C217.979 2.89062 219.922 2.25 222.422 2.25C224.089 2.25 225.641 2.47917 227.078 2.9375C228.526 3.39583 229.729 4.04167 230.688 4.875L229.812 5.57812C228.958 4.88021 227.885 4.33854 226.594 3.95312C225.302 3.56771 223.911 3.375 222.422 3.375C220.224 3.375 218.542 3.90104 217.375 4.95312C216.219 6.00521 215.641 7.35417 215.641 9C215.641 10.6354 216.13 11.9844 217.109 13.0469C218.089 14.099 219.495 14.625 221.328 14.625ZM221.328 16.875H223.047C223.849 16.875 224.427 17.0833 224.781 17.5C225.135 17.9167 225.312 18.4583 225.312 19.125C225.312 20.625 224.193 21.375 221.953 21.375C219.839 21.375 218.25 21.0625 217.188 20.4375L218.094 19.75C218.823 20.0833 220.109 20.25 221.953 20.25C222.849 20.25 223.448 20.151 223.75 19.9531C224.062 19.7552 224.219 19.4792 224.219 19.125C224.219 18.7812 224.13 18.5104 223.953 18.3125C223.786 18.1042 223.474 18 223.016 18H221.328C219.891 18 218.589 17.7656 217.422 17.2969C216.266 16.8281 215.312 16.1823 214.562 15.3594C213.823 14.5365 213.255 13.5833 212.859 12.5C212.464 11.4167 212.266 10.25 212.266 9C212.266 8 212.406 7.05208 212.688 6.15625C212.969 5.26042 213.391 4.4375 213.953 3.6875C214.526 2.9375 215.208 2.29167 216 1.75C216.802 1.19792 217.75 0.770833 218.844 0.46875C219.948 0.15625 221.141 0 222.422 0C224.432 0 226.312 0.307292 228.062 0.921875C229.812 1.52604 231.271 2.375 232.438 3.46875L231.531 4.14062C230.469 3.18229 229.141 2.44271 227.547 1.92188C225.953 1.39062 224.245 1.125 222.422 1.125C220.995 1.125 219.703 1.33333 218.547 1.75C217.401 2.15625 216.453 2.71875 215.703 3.4375C214.964 4.15625 214.391 4.98958 213.984 5.9375C213.589 6.88542 213.391 7.90625 213.391 9C213.391 10.4688 213.688 11.7917 214.281 12.9688C214.875 14.1458 215.781 15.0938 217 15.8125C218.219 16.5208 219.661 16.875 221.328 16.875Z" fill="#EEEEEE"/>
</svg>
