<svg width="146" height="18" viewBox="0 0 146 18" fill="none" xmlns="http://www.w3.org/2000/svg">
<path d="M7.89062 12.2539L8.17383 11.5508H10.5762L10.8594 12.2539H7.89062ZM7.34375 13.6602L7.61719 12.957H11.123L11.4258 13.6602H7.34375ZM6.79688 15.0664L7.07031 14.3633H11.6797L11.9727 15.0664H6.79688ZM1.08398 17H0.322266L6.71875 0.828125H7.48047L13.8672 17H13.1152L7.09961 1.77539L1.08398 17ZM7.1875 3.44531L7.58789 4.34375L2.58789 17H1.83594L7.1875 3.44531ZM7.96875 5.30078L8.33984 6.26758L4.11133 17H3.34961L7.96875 5.30078ZM8.71094 7.23438L9.08203 8.2207L5.61523 17H4.86328L8.71094 7.23438ZM18.4082 17H17.6465L11.2598 0.828125H12.0117L18.4082 17ZM10.498 0.828125L16.8945 17H16.1426L9.74609 0.828125H10.498ZM8.98438 0.828125L15.3809 17H14.6191L8.23242 0.828125H8.98438ZM31.5234 8.55273H32.2266V17H31.5234V8.55273ZM34.3359 8.55273H35.0391V17H34.3359V8.55273ZM32.9297 8.55273H33.6328V17H32.9297V8.55273ZM30.8203 8.55273V17C29.5833 17.4688 28.3008 17.7031 26.9727 17.7031C25.8203 17.7031 24.7168 17.4915 23.6621 17.0684C22.6074 16.6452 21.6797 16.0592 20.8789 15.3105C20.0781 14.5553 19.4368 13.6243 18.9551 12.5176C18.4798 11.4043 18.2422 10.2031 18.2422 8.91406C18.2422 7.72266 18.4733 6.58659 18.9355 5.50586C19.4043 4.41862 20.0293 3.48438 20.8105 2.70312C21.5983 1.91536 22.5326 1.29036 23.6133 0.828125C24.7005 0.359375 25.8398 0.125 27.0312 0.125C28.5156 0.125 29.8958 0.470052 31.1719 1.16016C32.4479 1.85026 33.4896 2.78776 34.2969 3.97266L33.7109 4.35352C32.9688 3.26628 32.0085 2.4069 30.8301 1.77539C29.6582 1.14388 28.3919 0.828125 27.0312 0.828125C25.9375 0.828125 24.8893 1.04297 23.8867 1.47266C22.8906 1.89583 22.0312 2.46875 21.3086 3.19141C20.5859 3.91406 20.0098 4.77669 19.5801 5.7793C19.1569 6.77539 18.9453 7.82031 18.9453 8.91406C18.9453 10.0924 19.1634 11.1927 19.5996 12.2148C20.0423 13.237 20.6283 14.0931 21.3574 14.7832C22.0931 15.4733 22.946 16.0169 23.916 16.4141C24.8861 16.8047 25.8952 17 26.9434 17C28.0436 17 29.1016 16.8275 30.1172 16.4824V15.8086C29.1471 16.1341 28.1283 16.2969 27.0605 16.2969C26.2858 16.2969 25.5306 16.1895 24.7949 15.9746C24.0658 15.7533 23.3887 15.431 22.7637 15.0078C22.1452 14.5781 21.6016 14.0703 21.1328 13.4844C20.6706 12.8919 20.306 12.2051 20.0391 11.4238C19.7786 10.6361 19.6484 9.79948 19.6484 8.91406C19.6484 7.57943 19.9772 6.3457 20.6348 5.21289C21.2988 4.08008 22.1973 3.1849 23.3301 2.52734C24.4629 1.86328 25.6966 1.53125 27.0312 1.53125C28.2812 1.53125 29.4434 1.82422 30.5176 2.41016C31.5918 2.98958 32.4674 3.77734 33.1445 4.77344L32.5586 5.1543C31.9466 4.25586 31.1523 3.54622 30.1758 3.02539C29.2057 2.49805 28.1576 2.23438 27.0312 2.23438C26.1263 2.23438 25.2604 2.41016 24.4336 2.76172C23.6068 3.11328 22.8939 3.58854 22.2949 4.1875C21.7025 4.77995 21.2305 5.48958 20.8789 6.31641C20.5273 7.14323 20.3516 8.00911 20.3516 8.91406C20.3516 9.72786 20.4688 10.4928 20.7031 11.209C20.944 11.9186 21.2728 12.5404 21.6895 13.0742C22.1126 13.6016 22.6042 14.0573 23.1641 14.4414C23.724 14.819 24.3327 15.1055 24.9902 15.3008C25.6543 15.4961 26.3346 15.5938 27.0312 15.5938C28.112 15.5938 29.1406 15.4115 30.1172 15.0469V14.3438C29.1536 14.7148 28.1478 14.9004 27.0996 14.9004C26.3053 14.9004 25.5469 14.7669 24.8242 14.5C24.1016 14.2266 23.457 13.8424 22.8906 13.3477C22.3307 12.8529 21.8848 12.2214 21.5527 11.4531C21.2207 10.6849 21.0547 9.83854 21.0547 8.91406C21.0547 7.83333 21.3216 6.83398 21.8555 5.91602C22.3893 4.99805 23.1152 4.27214 24.0332 3.73828C24.9512 3.20443 25.9505 2.9375 27.0312 2.9375C28.0404 2.9375 28.9779 3.17188 29.8438 3.64062C30.7161 4.10938 31.4258 4.7474 31.9727 5.55469L31.3867 5.93555C30.9049 5.23242 30.2799 4.67578 29.5117 4.26562C28.75 3.84896 27.9232 3.64062 27.0312 3.64062C26.0742 3.64062 25.1921 3.87826 24.3848 4.35352C23.5775 4.82227 22.9362 5.46029 22.4609 6.26758C21.9922 7.07487 21.7578 7.95703 21.7578 8.91406C21.7578 9.57812 21.8522 10.1966 22.041 10.7695C22.2298 11.3424 22.4902 11.8372 22.8223 12.2539C23.1543 12.6706 23.5417 13.0254 23.9844 13.3184C24.4336 13.6113 24.9154 13.8327 25.4297 13.9824C25.944 14.1257 26.4779 14.1973 27.0312 14.1973C28.1315 14.1973 29.1602 13.9792 30.1172 13.543V12.8691C29.1927 13.2793 28.1934 13.4844 27.1191 13.4844C26.5007 13.4844 25.918 13.39 25.3711 13.2012C24.8242 13.0124 24.3294 12.7357 23.8867 12.3711C23.4505 12.0065 23.1022 11.528 22.8418 10.9355C22.5879 10.3366 22.4609 9.66276 22.4609 8.91406C22.4609 8.29557 22.5814 7.70638 22.8223 7.14648C23.0632 6.58008 23.3887 6.0918 23.7988 5.68164C24.209 5.27148 24.694 4.94596 25.2539 4.70508C25.8203 4.46419 26.4128 4.34375 27.0312 4.34375C27.806 4.34375 28.5254 4.52604 29.1895 4.89062C29.8535 5.2487 30.3939 5.73698 30.8105 6.35547L30.2344 6.73633C29.8828 6.21549 29.4238 5.80534 28.8574 5.50586C28.2975 5.19987 27.6888 5.04688 27.0312 5.04688C25.9635 5.04688 25.0521 5.42448 24.2969 6.17969C23.5417 6.9349 23.1641 7.84635 23.1641 8.91406C23.1641 9.57161 23.2715 10.1543 23.4863 10.6621C23.7012 11.1634 23.9941 11.5671 24.3652 11.873C24.7428 12.1725 25.1595 12.4004 25.6152 12.5566C26.0775 12.7064 26.5723 12.7812 27.0996 12.7812C28.1803 12.7812 29.1862 12.5566 30.1172 12.1074V8.55273H30.8203ZM42.0801 8.95312H46.3184C46.9629 8.95312 47.5065 8.74479 47.9492 8.32812C48.3984 7.91146 48.623 7.31901 48.623 6.55078C48.623 5.98438 48.3887 5.47656 47.9199 5.02734C47.4512 4.57161 46.9173 4.34375 46.3184 4.34375H40.2832V17H39.5801V3.64062H46.3184C47.1126 3.64062 47.8125 3.93685 48.418 4.5293C49.0234 5.11523 49.3262 5.78906 49.3262 6.55078C49.3262 7.48828 49.0332 8.24023 48.4473 8.80664C47.8613 9.37305 47.1517 9.65625 46.3184 9.65625H42.0801V8.95312ZM42.0801 10.3594H46.3184C47.334 10.3594 48.2064 10.0046 48.9355 9.29492C49.6647 8.57878 50.0293 7.66406 50.0293 6.55078C50.0293 5.59375 49.6549 4.75391 48.9062 4.03125C48.1641 3.30208 47.3014 2.9375 46.3184 2.9375H38.877V17H38.1738V2.23438H46.3184C47.0931 2.23438 47.819 2.43294 48.4961 2.83008C49.1797 3.22721 49.7233 3.76107 50.127 4.43164C50.5306 5.0957 50.7324 5.80208 50.7324 6.55078C50.7324 7.83333 50.2962 8.90755 49.4238 9.77344C48.5579 10.6328 47.5228 11.0625 46.3184 11.0625H42.0801V10.3594ZM42.0801 11.7656H46.3184C47.2298 11.7656 48.0762 11.541 48.8574 11.0918C49.6387 10.6426 50.2637 10.0176 50.7324 9.2168C51.2012 8.40951 51.4355 7.52083 51.4355 6.55078C51.4355 5.67188 51.2012 4.84831 50.7324 4.08008C50.2702 3.30534 49.6452 2.68685 48.8574 2.22461C48.0697 1.76237 47.2233 1.53125 46.3184 1.53125H37.4707V17H36.7676V0.828125H46.3184C47.3405 0.828125 48.3008 1.0918 49.1992 1.61914C50.0977 2.13997 50.8105 2.8431 51.3379 3.72852C51.8717 4.60742 52.1387 5.54818 52.1387 6.55078C52.1387 7.70964 51.888 8.72852 51.3867 9.60742C50.8919 10.4863 50.2181 11.1732 49.3652 11.668L51.1816 17H50.4395L48.7012 12C48.4408 12.1042 48.2422 12.1758 48.1055 12.2148L49.7363 17H48.9941L47.4023 12.3809C47.3438 12.3939 47.1354 12.4167 46.7773 12.4492L48.291 17H47.5488L46.0547 12.4688H45.4199L46.8457 17H46.1035L44.668 12.4688H42.0801V11.7656ZM41.6895 17H40.9863V5.04688H46.3184C46.7546 5.04688 47.1289 5.19661 47.4414 5.49609C47.7604 5.78906 47.9199 6.14062 47.9199 6.55078C47.9199 7.68359 47.3861 8.25 46.3184 8.25H42.0801V7.54688H46.3184C46.5983 7.54688 46.8164 7.47526 46.9727 7.33203C47.1354 7.18229 47.2168 6.92188 47.2168 6.55078C47.2168 6.32292 47.1289 6.13411 46.9531 5.98438C46.7839 5.82812 46.5723 5.75 46.3184 5.75H41.6895V17ZM57.1484 6.17969C56.3932 6.9349 56.0156 7.84635 56.0156 8.91406C56.0156 9.98177 56.3932 10.8932 57.1484 11.6484C57.9036 12.4036 58.8151 12.7812 59.8828 12.7812C60.9505 12.7812 61.862 12.4036 62.6172 11.6484C63.3724 10.8932 63.75 9.98177 63.75 8.91406C63.75 7.84635 63.3724 6.9349 62.6172 6.17969C61.862 5.42448 60.9505 5.04688 59.8828 5.04688C58.8151 5.04688 57.9036 5.42448 57.1484 6.17969ZM55.6738 10.6914C55.4329 10.125 55.3125 9.53255 55.3125 8.91406C55.3125 8.29557 55.4329 7.70638 55.6738 7.14648C55.9147 6.58008 56.2402 6.0918 56.6504 5.68164C57.0605 5.27148 57.5456 4.94596 58.1055 4.70508C58.6719 4.46419 59.2643 4.34375 59.8828 4.34375C60.5013 4.34375 61.0905 4.46419 61.6504 4.70508C62.2168 4.94596 62.7051 5.27148 63.1152 5.68164C63.5254 6.0918 63.8509 6.58008 64.0918 7.14648C64.3327 7.70638 64.4531 8.29557 64.4531 8.91406C64.4531 9.53255 64.3327 10.125 64.0918 10.6914C63.8509 11.2513 63.5254 11.7363 63.1152 12.1465C62.7051 12.5566 62.2168 12.8822 61.6504 13.123C61.0905 13.3639 60.5013 13.4844 59.8828 13.4844C59.2643 13.4844 58.6719 13.3639 58.1055 13.123C57.5456 12.8822 57.0605 12.5566 56.6504 12.1465C56.2402 11.7363 55.9147 11.2513 55.6738 10.6914ZM55.3125 6.26758C54.8438 7.07487 54.6094 7.95703 54.6094 8.91406C54.6094 9.87109 54.8438 10.7533 55.3125 11.5605C55.7878 12.3678 56.429 13.0091 57.2363 13.4844C58.0436 13.9531 58.9258 14.1875 59.8828 14.1875C60.8398 14.1875 61.722 13.9531 62.5293 13.4844C63.3366 13.0091 63.9746 12.3678 64.4434 11.5605C64.9186 10.7533 65.1562 9.87109 65.1562 8.91406C65.1562 7.95703 64.9186 7.07487 64.4434 6.26758C63.9746 5.46029 63.3366 4.82227 62.5293 4.35352C61.722 3.87826 60.8398 3.64062 59.8828 3.64062C58.9258 3.64062 58.0436 3.87826 57.2363 4.35352C56.429 4.82227 55.7878 5.46029 55.3125 6.26758ZM54.707 11.9121C54.1732 10.9941 53.9062 9.99479 53.9062 8.91406C53.9062 7.83333 54.1732 6.83398 54.707 5.91602C55.2409 4.99805 55.9668 4.27214 56.8848 3.73828C57.8027 3.20443 58.8021 2.9375 59.8828 2.9375C60.9635 2.9375 61.9629 3.20443 62.8809 3.73828C63.7988 4.27214 64.5247 4.99805 65.0586 5.91602C65.5924 6.83398 65.8594 7.83333 65.8594 8.91406C65.8594 9.99479 65.5924 10.9941 65.0586 11.9121C64.5247 12.8301 63.7988 13.556 62.8809 14.0898C61.9629 14.6237 60.9635 14.8906 59.8828 14.8906C58.8021 14.8906 57.8027 14.6237 56.8848 14.0898C55.9668 13.556 55.2409 12.8301 54.707 11.9121ZM53.7305 6.31641C53.3789 7.14323 53.2031 8.00911 53.2031 8.91406C53.2031 9.81901 53.3789 10.6849 53.7305 11.5117C54.082 12.3385 54.554 13.0514 55.1465 13.6504C55.7454 14.2428 56.4583 14.7148 57.2852 15.0664C58.112 15.418 58.9779 15.5938 59.8828 15.5938C60.7878 15.5938 61.6536 15.418 62.4805 15.0664C63.3073 14.7148 64.0169 14.2428 64.6094 13.6504C65.2083 13.0514 65.6836 12.3385 66.0352 11.5117C66.3867 10.6849 66.5625 9.81901 66.5625 8.91406C66.5625 8.00911 66.3867 7.14323 66.0352 6.31641C65.6836 5.48958 65.2083 4.77995 64.6094 4.1875C64.0169 3.58854 63.3073 3.11328 62.4805 2.76172C61.6536 2.41016 60.7878 2.23438 59.8828 2.23438C58.9779 2.23438 58.112 2.41016 57.2852 2.76172C56.4583 3.11328 55.7454 3.58854 55.1465 4.1875C54.554 4.77995 54.082 5.48958 53.7305 6.31641ZM53.4863 12.6152C52.8288 11.4824 52.5 10.2487 52.5 8.91406C52.5 7.57943 52.8288 6.3457 53.4863 5.21289C54.1504 4.08008 55.0488 3.1849 56.1816 2.52734C57.3145 1.86328 58.5482 1.53125 59.8828 1.53125C61.2174 1.53125 62.4512 1.86328 63.584 2.52734C64.7168 3.1849 65.612 4.08008 66.2695 5.21289C66.9336 6.3457 67.2656 7.57943 67.2656 8.91406C67.2656 10.2487 66.9336 11.4824 66.2695 12.6152C65.612 13.748 64.7168 14.6465 63.584 15.3105C62.4512 15.9681 61.2174 16.2969 59.8828 16.2969C58.5482 16.2969 57.3145 15.9681 56.1816 15.3105C55.0488 14.6465 54.1504 13.748 53.4863 12.6152ZM52.4316 5.7793C52.0085 6.77539 51.7969 7.82031 51.7969 8.91406C51.7969 10.0078 52.0085 11.056 52.4316 12.0586C52.8613 13.0547 53.4375 13.9141 54.1602 14.6367C54.8828 15.3594 55.7422 15.9355 56.7383 16.3652C57.7409 16.7884 58.7891 17 59.8828 17C60.9766 17 62.0215 16.7884 63.0176 16.3652C64.0202 15.9355 64.8828 15.3594 65.6055 14.6367C66.3281 13.9141 66.901 13.0547 67.3242 12.0586C67.7539 11.056 67.9688 10.0078 67.9688 8.91406C67.9688 7.82031 67.7539 6.77539 67.3242 5.7793C66.901 4.77669 66.3281 3.91406 65.6055 3.19141C64.8828 2.46875 64.0202 1.89583 63.0176 1.47266C62.0215 1.04297 60.9766 0.828125 59.8828 0.828125C58.7891 0.828125 57.7409 1.04297 56.7383 1.47266C55.7422 1.89583 54.8828 2.46875 54.1602 3.19141C53.4375 3.91406 52.8613 4.77669 52.4316 5.7793ZM51.7871 12.332C51.3249 11.2448 51.0938 10.1055 51.0938 8.91406C51.0938 7.72266 51.3249 6.58659 51.7871 5.50586C52.2559 4.41862 52.8809 3.48438 53.6621 2.70312C54.4499 1.91536 55.3841 1.29036 56.4648 0.828125C57.5521 0.359375 58.6914 0.125 59.8828 0.125C61.0742 0.125 62.2103 0.359375 63.291 0.828125C64.3783 1.29036 65.3125 1.91536 66.0938 2.70312C66.8815 3.48438 67.5065 4.41862 67.9688 5.50586C68.4375 6.58659 68.6719 7.72266 68.6719 8.91406C68.6719 10.1055 68.4375 11.2448 67.9688 12.332C67.5065 13.4128 66.8815 14.347 66.0938 15.1348C65.3125 15.916 64.3783 16.5378 63.291 17C62.2103 17.4688 61.0742 17.7031 59.8828 17.7031C58.6914 17.7031 57.5521 17.4688 56.4648 17C55.3841 16.5378 54.4499 15.916 53.6621 15.1348C52.8809 14.347 52.2559 13.4128 51.7871 12.332ZM76.0938 12.2539L76.377 11.5508H78.7793L79.0625 12.2539H76.0938ZM75.5469 13.6602L75.8203 12.957H79.3262L79.6289 13.6602H75.5469ZM75 15.0664L75.2734 14.3633H79.8828L80.1758 15.0664H75ZM69.2871 17H68.5254L74.9219 0.828125H75.6836L82.0703 17H81.3184L75.3027 1.77539L69.2871 17ZM75.3906 3.44531L75.791 4.34375L70.791 17H70.0391L75.3906 3.44531ZM76.1719 5.30078L76.543 6.26758L72.3145 17H71.5527L76.1719 5.30078ZM76.9141 7.23438L77.2852 8.2207L73.8184 17H73.0664L76.9141 7.23438ZM86.6113 17H85.8496L79.4629 0.828125H80.2148L86.6113 17ZM78.7012 0.828125L85.0977 17H84.3457L77.9492 0.828125H78.7012ZM77.1875 0.828125L83.584 17H82.8223L76.4355 0.828125H77.1875ZM87.8418 0.828125H88.5449V17H87.8418V0.828125ZM92.0605 0.828125H92.7637V13.4844H98.3887V14.1875H92.7637V14.8906H98.3887V15.5938H92.7637V16.2969H98.3887V17H92.0605V0.828125ZM90.6543 0.828125H91.3574V17H90.6543V0.828125ZM89.248 0.828125H89.9512V17H89.248V0.828125ZM99.9512 0.828125H100.654V17H99.9512V0.828125ZM104.17 0.828125H104.873V13.4844H110.498V14.1875H104.873V14.8906H110.498V15.5938H104.873V16.2969H110.498V17H104.17V0.828125ZM102.764 0.828125H103.467V17H102.764V0.828125ZM101.357 0.828125H102.061V17H101.357V0.828125ZM116.279 0.828125H116.982V17H116.279V0.828125ZM114.873 0.828125H115.576V17H114.873V0.828125ZM113.467 0.828125H114.17V17H113.467V0.828125ZM112.061 0.828125H112.764V17H112.061V0.828125ZM122.354 17H121.65V0.828125H122.354V17ZM120.947 17H120.244V0.828125H120.947V17ZM119.541 17H118.838V0.828125H119.541V17ZM123.76 13.4844H131.24V14.1875H123.76V14.8906H131.24V15.5938H123.76V16.2969H131.24V17H123.057V0.828125H131.24V1.53125H123.76V2.23438H131.24V2.9375H123.76V3.64062H131.24V4.34375H123.76V7.15625H127.598V7.85938H123.76V8.5625H127.598V9.26562H123.76V9.96875H127.598V10.6719H123.76V13.4844ZM139.512 7.15625H138.33C137.829 7.15625 137.467 7.0293 137.246 6.77539C137.025 6.51497 136.914 6.17318 136.914 5.75C136.914 4.8125 137.614 4.34375 139.014 4.34375C140.329 4.34375 141.318 4.53906 141.982 4.92969L141.416 5.35938C140.96 5.15104 140.16 5.04688 139.014 5.04688C138.454 5.04688 138.076 5.10872 137.881 5.23242C137.692 5.35612 137.598 5.52865 137.598 5.75C137.598 5.97135 137.65 6.14388 137.754 6.26758C137.858 6.39128 138.05 6.45312 138.33 6.45312H139.541C140.42 6.45312 141.211 6.60286 141.914 6.90234C142.624 7.20182 143.206 7.61198 143.662 8.13281C144.118 8.64714 144.466 9.24284 144.707 9.91992C144.948 10.5905 145.068 11.3099 145.068 12.0781C145.068 12.7031 144.98 13.2956 144.805 13.8555C144.629 14.4154 144.362 14.9297 144.004 15.3984C143.652 15.8672 143.226 16.2741 142.725 16.6191C142.23 16.9577 141.637 17.2214 140.947 17.4102C140.264 17.6055 139.521 17.7031 138.721 17.7031C137.464 17.7031 136.286 17.5111 135.186 17.127C134.092 16.7493 133.18 16.2188 132.451 15.5352L133.018 15.1152C133.682 15.7142 134.512 16.1797 135.508 16.5117C136.51 16.8372 137.581 17 138.721 17C139.613 17 140.417 16.873 141.133 16.6191C141.855 16.3587 142.448 16.0039 142.91 15.5547C143.379 15.1055 143.737 14.5846 143.984 13.9922C144.238 13.3997 144.365 12.7617 144.365 12.0781C144.365 11.1732 144.183 10.3561 143.818 9.62695C143.454 8.89128 142.897 8.29557 142.148 7.83984C141.406 7.38411 140.527 7.15625 139.512 7.15625ZM138.33 7.85938H139.443C140.765 7.85938 141.797 8.26302 142.539 9.07031C143.288 9.8776 143.662 10.8802 143.662 12.0781C143.662 13.2956 143.229 14.3047 142.363 15.1055C141.497 15.8997 140.283 16.2969 138.721 16.2969C137.679 16.2969 136.706 16.1536 135.801 15.8672C134.896 15.5807 134.144 15.1771 133.545 14.6562L134.092 14.2168C134.626 14.653 135.296 14.9915 136.104 15.2324C136.917 15.4733 137.79 15.5938 138.721 15.5938C140.094 15.5938 141.143 15.265 141.865 14.6074C142.594 13.9499 142.959 13.1068 142.959 12.0781C142.959 11.0625 142.653 10.2227 142.041 9.55859C141.436 8.89453 140.566 8.5625 139.434 8.5625H138.33C137.38 8.5625 136.667 8.30208 136.191 7.78125C135.716 7.26042 135.479 6.58333 135.479 5.75C135.479 4.91667 135.771 4.23958 136.357 3.71875C136.95 3.19792 137.835 2.9375 139.014 2.9375C139.84 2.9375 140.609 3.03516 141.318 3.23047C142.028 3.41927 142.614 3.69271 143.076 4.05078L142.52 4.48047C141.706 3.92057 140.537 3.64062 139.014 3.64062C138.031 3.64062 137.311 3.83594 136.855 4.22656C136.406 4.61068 136.182 5.11849 136.182 5.75C136.182 6.38802 136.348 6.89909 136.68 7.2832C137.018 7.66732 137.568 7.85938 138.33 7.85938ZM138.33 9.26562H139.404C140.355 9.26562 141.068 9.5293 141.543 10.0566C142.018 10.584 142.256 11.2578 142.256 12.0781C142.256 12.9115 141.96 13.5885 141.367 14.1094C140.781 14.6302 139.899 14.8906 138.721 14.8906C137.894 14.8906 137.122 14.7962 136.406 14.6074C135.697 14.4121 135.111 14.1354 134.648 13.7773L135.205 13.3477C136.019 13.9076 137.191 14.1875 138.721 14.1875C139.704 14.1875 140.42 13.9954 140.869 13.6113C141.325 13.2207 141.553 12.7096 141.553 12.0781C141.553 11.4466 141.383 10.9388 141.045 10.5547C140.706 10.1641 140.156 9.96875 139.395 9.96875H138.33C136.995 9.96875 135.951 9.57161 135.195 8.77734C134.447 7.97656 134.072 6.96745 134.072 5.75C134.072 4.53255 134.505 3.52669 135.371 2.73242C136.237 1.93164 137.451 1.53125 139.014 1.53125C140.055 1.53125 141.025 1.67448 141.924 1.96094C142.829 2.2474 143.581 2.65104 144.18 3.17188L143.633 3.61133C143.099 3.17513 142.428 2.83659 141.621 2.5957C140.814 2.35482 139.945 2.23438 139.014 2.23438C137.64 2.23438 136.589 2.56315 135.859 3.2207C135.137 3.87826 134.775 4.72135 134.775 5.75C134.775 6.77214 135.081 7.61523 135.693 8.2793C136.305 8.93685 137.184 9.26562 138.33 9.26562ZM138.33 10.6719H139.404C139.906 10.6719 140.267 10.8021 140.488 11.0625C140.71 11.3229 140.82 11.6615 140.82 12.0781C140.82 13.0156 140.12 13.4844 138.721 13.4844C137.399 13.4844 136.406 13.2891 135.742 12.8984L136.309 12.4688C136.764 12.6771 137.568 12.7812 138.721 12.7812C139.281 12.7812 139.655 12.7194 139.844 12.5957C140.039 12.472 140.137 12.2995 140.137 12.0781C140.137 11.8633 140.081 11.694 139.971 11.5703C139.867 11.4401 139.671 11.375 139.385 11.375H138.33C137.432 11.375 136.618 11.2285 135.889 10.9355C135.166 10.6426 134.57 10.2389 134.102 9.72461C133.639 9.21029 133.285 8.61458 133.037 7.9375C132.79 7.26042 132.666 6.53125 132.666 5.75C132.666 5.125 132.754 4.53255 132.93 3.97266C133.105 3.41276 133.369 2.89844 133.721 2.42969C134.079 1.96094 134.505 1.55729 135 1.21875C135.501 0.873698 136.094 0.606771 136.777 0.417969C137.467 0.222656 138.213 0.125 139.014 0.125C140.27 0.125 141.445 0.317057 142.539 0.701172C143.633 1.07878 144.544 1.60938 145.273 2.29297L144.707 2.71289C144.043 2.11393 143.213 1.65169 142.217 1.32617C141.221 0.994141 140.153 0.828125 139.014 0.828125C138.122 0.828125 137.314 0.958333 136.592 1.21875C135.876 1.47266 135.283 1.82422 134.814 2.27344C134.352 2.72266 133.994 3.24349 133.74 3.83594C133.493 4.42839 133.369 5.06641 133.369 5.75C133.369 6.66797 133.555 7.49479 133.926 8.23047C134.297 8.96615 134.863 9.55859 135.625 10.0078C136.387 10.4505 137.288 10.6719 138.33 10.6719Z" fill="#EEEEEE"/>
</svg>
