<svg width="257" height="32" viewBox="0 0 257 32" fill="none" xmlns="http://www.w3.org/2000/svg">
<path d="M14.2031 21.457L14.7129 20.1914H19.0371L19.5469 21.457H14.2031ZM13.2188 23.9883L13.7109 22.7227H20.0215L20.5664 23.9883H13.2188ZM12.2344 26.5195L12.7266 25.2539H21.0234L21.5508 26.5195H12.2344ZM1.95117 30H0.580078L12.0938 0.890625H13.4648L24.9609 30H23.6074L12.7793 2.5957L1.95117 30ZM12.9375 5.60156L13.6582 7.21875L4.6582 30H3.30469L12.9375 5.60156ZM14.3438 8.94141L15.0117 10.6816L7.40039 30H6.0293L14.3438 8.94141ZM15.6797 12.4219L16.3477 14.1973L10.1074 30H8.75391L15.6797 12.4219ZM33.1348 30H31.7637L20.2676 0.890625H21.6211L33.1348 30ZM18.8965 0.890625L30.4102 30H29.0566L17.543 0.890625H18.8965ZM16.1719 0.890625L27.6855 30H26.3145L14.8184 0.890625H16.1719ZM53.1562 17.168H54.4219V30C52.5469 30.8438 50.6074 31.2656 48.6035 31.2656C46.7168 31.2656 44.9121 30.8965 43.1895 30.1582C41.4785 29.4199 40.002 28.4297 38.7598 27.1875C37.5176 25.9453 36.5273 24.4688 35.7891 22.7578C35.0508 21.0352 34.6816 19.2305 34.6816 17.3438C34.6816 15.457 35.0508 13.6582 35.7891 11.9473C36.5273 10.2246 37.5176 8.74219 38.7598 7.5C40.002 6.25781 41.4785 5.26758 43.1895 4.5293C44.9121 3.79102 46.7168 3.42188 48.6035 3.42188C50.7598 3.42188 52.7871 3.89063 54.6855 4.82812C56.584 5.75391 58.1836 7.03125 59.4844 8.66016L58.4648 9.41602C57.2812 7.95117 55.8281 6.79688 54.1055 5.95312C52.3945 5.10938 50.5605 4.6875 48.6035 4.6875C46.8926 4.6875 45.252 5.02148 43.6816 5.68945C42.123 6.35742 40.7754 7.25977 39.6387 8.39648C38.5137 9.52148 37.6172 10.8691 36.9492 12.4395C36.2812 13.998 35.9473 15.6328 35.9473 17.3438C35.9473 19.0547 36.2812 20.6953 36.9492 22.2656C37.6172 23.8242 38.5137 25.1719 39.6387 26.3086C40.7754 27.4336 42.123 28.3301 43.6816 28.998C45.252 29.666 46.8926 30 48.6035 30C50.1855 30 51.7031 29.7188 53.1562 29.1562V27.8555C51.6914 28.4414 50.1738 28.7344 48.6035 28.7344C47.0566 28.7344 45.5801 28.4355 44.1738 27.8379C42.7676 27.2285 41.5547 26.4199 40.5352 25.4121C39.5273 24.3926 38.7188 23.1797 38.1094 21.7734C37.5117 20.3672 37.2129 18.8906 37.2129 17.3438C37.2129 15.7969 37.5117 14.3203 38.1094 12.9141C38.7188 11.5078 39.5273 10.3008 40.5352 9.29297C41.5547 8.27344 42.7676 7.46484 44.1738 6.86719C45.5801 6.25781 47.0566 5.95312 48.6035 5.95312C50.373 5.95312 52.0312 6.33398 53.5781 7.0957C55.1367 7.85742 56.4492 8.90625 57.5156 10.2422L56.5312 11.0332C55.582 9.84961 54.416 8.91797 53.0332 8.23828C51.6504 7.55859 50.1738 7.21875 48.6035 7.21875C47.2324 7.21875 45.9199 7.48828 44.666 8.02734C43.4238 8.55469 42.3457 9.27539 41.4316 10.1895C40.5293 11.0918 39.8086 12.1699 39.2695 13.4238C38.7422 14.666 38.4785 15.9727 38.4785 17.3438C38.4785 18.7148 38.7422 20.0273 39.2695 21.2812C39.8086 22.5234 40.5293 23.6016 41.4316 24.5156C42.3457 25.418 43.4238 26.1387 44.666 26.6777C45.9199 27.2051 47.2324 27.4688 48.6035 27.4688C50.2207 27.4688 51.7383 27.1406 53.1562 26.4844V25.1836C51.7383 25.8633 50.2207 26.2031 48.6035 26.2031C46.998 26.2031 45.5156 25.8105 44.1562 25.0254C42.7969 24.2285 41.7188 23.1504 40.9219 21.791C40.1367 20.4316 39.7441 18.9492 39.7441 17.3438C39.7441 15.7383 40.1367 14.2559 40.9219 12.8965C41.7188 11.5371 42.7969 10.4648 44.1562 9.67969C45.5156 8.88281 46.998 8.48438 48.6035 8.48438C49.9746 8.48438 51.2637 8.7832 52.4707 9.38086C53.6895 9.9668 54.709 10.7812 55.5293 11.8242L54.5273 12.5977C53.8242 11.707 52.9512 11.0098 51.9082 10.5059C50.877 10.002 49.7754 9.75 48.6035 9.75C46.5059 9.75 44.7129 10.4941 43.2246 11.9824C41.748 13.4707 41.0098 15.2578 41.0098 17.3438C41.0098 19.4297 41.748 21.2168 43.2246 22.7051C44.7129 24.1934 46.5059 24.9375 48.6035 24.9375C50.2441 24.9375 51.7617 24.5391 53.1562 23.7422V22.459C51.7852 23.2676 50.2676 23.6719 48.6035 23.6719C46.8574 23.6719 45.3633 23.0566 44.1211 21.8262C42.8906 20.584 42.2754 19.0898 42.2754 17.3438C42.2754 15.5977 42.8906 14.1094 44.1211 12.8789C45.3633 11.6367 46.8574 11.0156 48.6035 11.0156C49.5879 11.0156 50.5137 11.2324 51.3809 11.666C52.248 12.0879 52.9746 12.668 53.5605 13.4062L52.541 14.1797C51.5215 12.9141 50.209 12.2812 48.6035 12.2812C47.209 12.2812 46.0137 12.7793 45.0176 13.7754C44.0332 14.7598 43.541 15.9492 43.541 17.3438C43.541 18.7383 44.0332 19.9336 45.0176 20.9297C46.0137 21.9141 47.209 22.4062 48.6035 22.4062C50.3965 22.4062 51.9141 21.9082 53.1562 20.9121V17.168ZM60.75 17.168H62.0156V30H60.75V17.168ZM58.2188 17.168H59.4844V30H58.2188V17.168ZM55.6875 17.168H56.9531V30H55.6875V17.168ZM74.6895 17.9062H82.3184C83.3262 17.9062 84.1816 17.5898 84.8848 16.957C85.5879 16.3242 85.9395 15.4336 85.9395 14.2852C85.9395 13.4414 85.5703 12.6855 84.832 12.0176C84.1055 11.3496 83.2676 11.0156 82.3184 11.0156H71.4551V30H70.1895V9.75H82.3184C83.6191 9.75 84.7559 10.207 85.7285 11.1211C86.7129 12.0352 87.2051 13.0898 87.2051 14.2852C87.2051 15.7734 86.7305 16.9629 85.7812 17.8535C84.832 18.7324 83.6777 19.1719 82.3184 19.1719H74.6895V17.9062ZM74.6895 20.4375H82.3184C84.0059 20.4375 85.4531 19.8633 86.6602 18.7148C87.8672 17.5664 88.4707 16.0898 88.4707 14.2852C88.4707 12.75 87.8555 11.4023 86.625 10.2422C85.3945 9.07031 83.959 8.48438 82.3184 8.48438H68.9238V30H67.6582V7.21875H82.3184C84.3105 7.21875 86.0449 7.92773 87.5215 9.3457C88.998 10.752 89.7363 12.3984 89.7363 14.2852C89.7363 16.3945 89.0039 18.1582 87.5391 19.5762C86.0859 20.9941 84.3457 21.7031 82.3184 21.7031H74.6895V20.4375ZM74.6895 22.9688H82.3184C83.877 22.9688 85.3184 22.5938 86.6426 21.8438C87.9668 21.0938 89.0215 20.0508 89.8066 18.7148C90.6035 17.3789 91.002 15.9023 91.002 14.2852C91.002 12.8203 90.6094 11.4492 89.8242 10.1719C89.0391 8.88281 87.9727 7.85742 86.625 7.0957C85.2891 6.33398 83.8535 5.95312 82.3184 5.95312H66.3926V30H65.127V4.6875H82.3184C83.6426 4.6875 84.9141 4.95117 86.1328 5.47852C87.3633 5.99414 88.4238 6.68555 89.3145 7.55273C90.2051 8.4082 90.9199 9.42773 91.459 10.6113C91.998 11.7949 92.2676 13.0195 92.2676 14.2852C92.2676 16.3359 91.7988 18.1289 90.8613 19.6641C89.9238 21.1875 88.6641 22.3477 87.082 23.1445L89.7363 30H88.3828L85.8691 23.6543C85.5527 23.7598 85.1836 23.8652 84.7617 23.9707L87.1348 30H85.7812L83.4609 24.1816C83.0977 24.2168 82.7168 24.2344 82.3184 24.2344L84.5508 30H83.2148L81 24.2344H79.8574L81.9844 30H80.6484L78.5039 24.2344H74.6895V22.9688ZM73.9863 30H72.7207V12.2812H82.3184C82.9746 12.2812 83.5312 12.4805 83.9883 12.8789C84.4453 13.2656 84.6738 13.7344 84.6738 14.2852C84.6738 15.8555 83.8887 16.6406 82.3184 16.6406H74.6895V15.375H82.3184C83.0449 15.375 83.4082 15.0117 83.4082 14.2852C83.4082 14.0859 83.2969 13.916 83.0742 13.7754C82.8633 13.623 82.6113 13.5469 82.3184 13.5469H73.9863V30ZM104.748 13.7754C103.764 14.7598 103.271 15.9492 103.271 17.3438C103.271 18.7383 103.764 19.9336 104.748 20.9297C105.744 21.9141 106.939 22.4062 108.334 22.4062C109.729 22.4062 110.918 21.9141 111.902 20.9297C112.898 19.9336 113.396 18.7383 113.396 17.3438C113.396 15.9492 112.898 14.7598 111.902 13.7754C110.918 12.7793 109.729 12.2812 108.334 12.2812C106.939 12.2812 105.744 12.7793 104.748 13.7754ZM103.852 21.8262C102.621 20.584 102.006 19.0898 102.006 17.3438C102.006 15.5977 102.621 14.1094 103.852 12.8789C105.094 11.6367 106.588 11.0156 108.334 11.0156C110.08 11.0156 111.568 11.6367 112.799 12.8789C114.041 14.1094 114.662 15.5977 114.662 17.3438C114.662 19.0898 114.041 20.584 112.799 21.8262C111.568 23.0566 110.08 23.6719 108.334 23.6719C106.588 23.6719 105.094 23.0566 103.852 21.8262ZM102.955 11.9824C101.479 13.4707 100.74 15.2578 100.74 17.3438C100.74 19.4297 101.479 21.2168 102.955 22.7051C104.443 24.1934 106.236 24.9375 108.334 24.9375C110.432 24.9375 112.219 24.1934 113.695 22.7051C115.184 21.2168 115.928 19.4297 115.928 17.3438C115.928 15.2578 115.184 13.4707 113.695 11.9824C112.219 10.4941 110.432 9.75 108.334 9.75C106.236 9.75 104.443 10.4941 102.955 11.9824ZM100.652 21.791C99.8672 20.4316 99.4746 18.9492 99.4746 17.3438C99.4746 15.7383 99.8672 14.2559 100.652 12.8965C101.449 11.5371 102.527 10.4648 103.887 9.67969C105.246 8.88281 106.729 8.48438 108.334 8.48438C109.939 8.48438 111.422 8.88281 112.781 9.67969C114.141 10.4648 115.213 11.5371 115.998 12.8965C116.795 14.2559 117.193 15.7383 117.193 17.3438C117.193 18.9492 116.795 20.4316 115.998 21.791C115.213 23.1504 114.141 24.2285 112.781 25.0254C111.422 25.8105 109.939 26.2031 108.334 26.2031C106.729 26.2031 105.246 25.8105 103.887 25.0254C102.527 24.2285 101.449 23.1504 100.652 21.791ZM99 13.4238C98.4727 14.666 98.209 15.9727 98.209 17.3438C98.209 18.7148 98.4727 20.0273 99 21.2812C99.5391 22.5234 100.26 23.6016 101.162 24.5156C102.076 25.418 103.154 26.1387 104.396 26.6777C105.65 27.2051 106.963 27.4688 108.334 27.4688C109.705 27.4688 111.012 27.2051 112.254 26.6777C113.508 26.1387 114.586 25.418 115.488 24.5156C116.402 23.6016 117.123 22.5234 117.65 21.2812C118.189 20.0273 118.459 18.7148 118.459 17.3438C118.459 15.9727 118.189 14.666 117.65 13.4238C117.123 12.1699 116.402 11.0918 115.488 10.1895C114.586 9.27539 113.508 8.55469 112.254 8.02734C111.012 7.48828 109.705 7.21875 108.334 7.21875C106.963 7.21875 105.65 7.48828 104.396 8.02734C103.154 8.55469 102.076 9.27539 101.162 10.1895C100.26 11.0918 99.5391 12.1699 99 13.4238ZM97.8398 21.7734C97.2422 20.3672 96.9434 18.8906 96.9434 17.3438C96.9434 15.7969 97.2422 14.3203 97.8398 12.9141C98.4492 11.5078 99.2578 10.3008 100.266 9.29297C101.285 8.27344 102.498 7.46484 103.904 6.86719C105.311 6.25781 106.787 5.95312 108.334 5.95312C109.881 5.95312 111.357 6.25781 112.764 6.86719C114.17 7.46484 115.377 8.27344 116.385 9.29297C117.404 10.3008 118.213 11.5078 118.811 12.9141C119.42 14.3203 119.725 15.7969 119.725 17.3438C119.725 18.8906 119.42 20.3672 118.811 21.7734C118.213 23.1797 117.404 24.3926 116.385 25.4121C115.377 26.4199 114.17 27.2285 112.764 27.8379C111.357 28.4355 109.881 28.7344 108.334 28.7344C106.787 28.7344 105.311 28.4355 103.904 27.8379C102.498 27.2285 101.285 26.4199 100.266 25.4121C99.2578 24.3926 98.4492 23.1797 97.8398 21.7734ZM96.6797 12.4395C96.0117 13.998 95.6777 15.6328 95.6777 17.3438C95.6777 19.0547 96.0117 20.6953 96.6797 22.2656C97.3477 23.8242 98.2441 25.1719 99.3691 26.3086C100.506 27.4336 101.854 28.3301 103.412 28.998C104.982 29.666 106.623 30 108.334 30C110.045 30 111.68 29.666 113.238 28.998C114.809 28.3301 116.156 27.4336 117.281 26.3086C118.418 25.1719 119.32 23.8242 119.988 22.2656C120.656 20.6953 120.99 19.0547 120.99 17.3438C120.99 15.6328 120.656 13.998 119.988 12.4395C119.32 10.8691 118.418 9.52148 117.281 8.39648C116.156 7.25977 114.809 6.35742 113.238 5.68945C111.68 5.02148 110.045 4.6875 108.334 4.6875C106.623 4.6875 104.982 5.02148 103.412 5.68945C101.854 6.35742 100.506 7.25977 99.3691 8.39648C98.2441 9.52148 97.3477 10.8691 96.6797 12.4395ZM95.5195 22.7578C94.7812 21.0352 94.4121 19.2305 94.4121 17.3438C94.4121 15.457 94.7812 13.6582 95.5195 11.9473C96.2578 10.2246 97.248 8.74219 98.4902 7.5C99.7324 6.25781 101.209 5.26758 102.92 4.5293C104.643 3.79102 106.447 3.42188 108.334 3.42188C110.221 3.42188 112.02 3.79102 113.73 4.5293C115.453 5.26758 116.936 6.25781 118.178 7.5C119.42 8.74219 120.41 10.2246 121.148 11.9473C121.887 13.6582 122.256 15.457 122.256 17.3438C122.256 19.2305 121.887 21.0352 121.148 22.7578C120.41 24.4688 119.42 25.9453 118.178 27.1875C116.936 28.4297 115.453 29.4199 113.73 30.1582C112.02 30.8965 110.221 31.2656 108.334 31.2656C106.447 31.2656 104.643 30.8965 102.92 30.1582C101.209 29.4199 99.7324 28.4297 98.4902 27.1875C97.248 25.9453 96.2578 24.4688 95.5195 22.7578ZM135.422 21.457L135.932 20.1914H140.256L140.766 21.457H135.422ZM134.438 23.9883L134.93 22.7227H141.24L141.785 23.9883H134.438ZM133.453 26.5195L133.945 25.2539H142.242L142.77 26.5195H133.453ZM123.17 30H121.799L133.312 0.890625H134.684L146.18 30H144.826L133.998 2.5957L123.17 30ZM134.156 5.60156L134.877 7.21875L125.877 30H124.523L134.156 5.60156ZM135.562 8.94141L136.23 10.6816L128.619 30H127.248L135.562 8.94141ZM136.898 12.4219L137.566 14.1973L131.326 30H129.973L136.898 12.4219ZM154.354 30H152.982L141.486 0.890625H142.84L154.354 30ZM140.115 0.890625L151.629 30H150.275L138.762 0.890625H140.115ZM137.391 0.890625L148.904 30H147.533L136.037 0.890625H137.391ZM156.568 4.6875H157.834V30H156.568V4.6875ZM164.162 4.6875H165.428V23.6719H174.762V24.9375H165.428V26.2031H174.762V27.4688H165.428V28.7344H174.762V30H164.162V4.6875ZM161.631 4.6875H162.896V30H161.631V4.6875ZM159.1 4.6875H160.365V30H159.1V4.6875ZM177.557 4.6875H178.822V30H177.557V4.6875ZM185.15 4.6875H186.416V23.6719H195.75V24.9375H186.416V26.2031H195.75V27.4688H186.416V28.7344H195.75V30H185.15V4.6875ZM182.619 4.6875H183.885V30H182.619V4.6875ZM180.088 4.6875H181.354V30H180.088V4.6875ZM206.139 4.6875H207.404V30H206.139V4.6875ZM203.607 4.6875H204.873V30H203.607V4.6875ZM201.076 4.6875H202.342V30H201.076V4.6875ZM198.545 4.6875H199.811V30H198.545V4.6875ZM217.037 30H215.771V4.6875H217.037V30ZM214.506 30H213.24V4.6875H214.506V30ZM211.975 30H210.709V4.6875H211.975V30ZM219.568 23.6719H231.68V24.9375H219.568V26.2031H231.68V27.4688H219.568V28.7344H231.68V30H218.303V4.6875H231.68V5.95312H219.568V7.21875H231.68V8.48438H219.568V9.75H231.68V11.0156H219.568V14.1621H230.977V15.4277H219.568V16.6934H230.977V17.959H219.568V19.2246H230.977V20.4902H219.568V23.6719ZM246.357 17.959H244.354C241.893 17.959 240 17.4609 238.676 16.4648C237.352 15.457 236.689 14.0742 236.689 12.3164C236.689 10.6758 237.469 9.31055 239.027 8.2207C240.586 7.11914 242.771 6.56836 245.584 6.56836C247.459 6.56836 249.205 6.82617 250.822 7.3418C252.451 7.85742 253.805 8.58398 254.883 9.52148L253.898 10.3125C252.938 9.52734 251.73 8.91797 250.277 8.48438C248.824 8.05078 247.26 7.83398 245.584 7.83398C243.111 7.83398 241.219 8.25586 239.906 9.09961C238.605 9.94336 237.955 11.0156 237.955 12.3164C237.955 13.7227 238.488 14.8066 239.555 15.5684C240.633 16.3184 242.232 16.6934 244.354 16.6934H246.287C248.783 16.6934 250.693 17.1973 252.018 18.2051C253.354 19.2012 254.021 20.5781 254.021 22.3359C254.021 23.9766 253.242 25.3477 251.684 26.4492C250.125 27.5391 247.939 28.084 245.127 28.084C243.252 28.084 241.5 27.8262 239.871 27.3105C238.254 26.7949 236.906 26.0684 235.828 25.1309L236.812 24.3398C237.773 25.125 238.98 25.7344 240.434 26.168C241.887 26.6016 243.451 26.8184 245.127 26.8184C247.6 26.8184 249.486 26.3965 250.787 25.5527C252.1 24.709 252.756 23.6367 252.756 22.3359C252.756 20.9297 252.217 19.8516 251.139 19.1016C250.072 18.3398 248.479 17.959 246.357 17.959ZM246.357 20.4902H244.354C241.096 20.4902 238.582 19.752 236.812 18.2754C235.043 16.7871 234.158 14.8008 234.158 12.3164C234.158 11.1797 234.41 10.1133 234.914 9.11719C235.418 8.12109 236.139 7.24805 237.076 6.49805C238.025 5.73633 239.232 5.13867 240.697 4.70508C242.162 4.25977 243.791 4.03711 245.584 4.03711C247.846 4.03711 249.961 4.38281 251.93 5.07422C253.898 5.75391 255.539 6.70898 256.852 7.93945L255.832 8.69531C254.637 7.61719 253.143 6.78516 251.35 6.19922C249.557 5.60156 247.635 5.30273 245.584 5.30273C242.42 5.30273 239.936 5.9707 238.131 7.30664C236.326 8.64258 235.424 10.3125 235.424 12.3164C235.424 14.4375 236.197 16.1191 237.744 17.3613C239.291 18.6035 241.494 19.2246 244.354 19.2246H246.287C249.756 19.2246 251.49 20.2617 251.49 22.3359C251.49 23.2734 250.957 24.0469 249.891 24.6562C248.836 25.2539 247.248 25.5527 245.127 25.5527C243.639 25.5527 242.256 25.3828 240.979 25.043C239.701 24.6914 238.646 24.1934 237.814 23.5488L238.816 22.7754C240.281 23.7832 242.385 24.2871 245.127 24.2871C246.885 24.2871 248.174 24.1055 248.994 23.7422C249.814 23.3789 250.225 22.9102 250.225 22.3359C250.225 21.668 249.938 21.1934 249.363 20.9121C248.789 20.6309 247.787 20.4902 246.357 20.4902ZM246.357 15.4277H244.354C240.932 15.4277 239.221 14.3906 239.221 12.3164C239.221 11.3789 239.748 10.6113 240.803 10.0137C241.869 9.4043 243.463 9.09961 245.584 9.09961C247.072 9.09961 248.455 9.27539 249.732 9.62695C251.01 9.9668 252.064 10.459 252.896 11.1035L251.895 11.877C250.43 10.8691 248.326 10.3652 245.584 10.3652C243.826 10.3652 242.537 10.5469 241.717 10.9102C240.896 11.2734 240.486 11.7422 240.486 12.3164C240.486 12.9844 240.773 13.459 241.348 13.7402C241.922 14.0215 242.924 14.1621 244.354 14.1621H246.357C249.615 14.1621 252.129 14.9062 253.898 16.3945C255.668 17.8711 256.553 19.8516 256.553 22.3359C256.553 23.4727 256.301 24.5391 255.797 25.5352C255.293 26.5312 254.566 27.4102 253.617 28.1719C252.68 28.9219 251.479 29.5195 250.014 29.9648C248.549 30.3984 246.92 30.6152 245.127 30.6152C242.865 30.6152 240.75 30.2754 238.781 29.5957C236.812 28.9043 235.172 27.9434 233.859 26.7129L234.879 25.957C236.074 27.0352 237.568 27.873 239.361 28.4707C241.154 29.0566 243.076 29.3496 245.127 29.3496C248.291 29.3496 250.775 28.6816 252.58 27.3457C254.385 26.0098 255.287 24.3398 255.287 22.3359C255.287 20.2148 254.514 18.5332 252.967 17.291C251.42 16.0488 249.217 15.4277 246.357 15.4277Z" fill="#073C02"/>
</svg>
