<svg width="46" height="46" viewBox="0 0 46 46" fill="none" xmlns="http://www.w3.org/2000/svg">
<path fill-rule="evenodd" clip-rule="evenodd" d="M41.4 13.8V6.9H36.8V9.2H32.2V6.9H13.8V9.2H9.2V6.9H4.6V13.8H41.4ZM41.4 18.4H4.6V41.4H41.4V18.4ZM36.8 2.3H41.4C43.9405 2.3 46 4.35949 46 6.9V41.4C46 43.9405 43.9405 46 41.4 46H4.6C2.05949 46 0 43.9405 0 41.4V6.9C0 4.35949 2.05949 2.3 4.6 2.3H9.2V0H13.8V2.3H32.2V0H36.8V2.3ZM16.1 27.6H11.5V23H16.1V27.6ZM25.3 27.6H20.7V23H25.3V27.6ZM34.5 27.6H29.9V23H34.5V27.6ZM16.1 36.8H11.5V32.2H16.1V36.8ZM25.3 36.8H20.7V32.2H25.3V36.8Z" fill="#19C00A" fill-opacity="0.7"/>
</svg>
