<svg width="48" height="48" viewBox="0 0 48 48" fill="none" xmlns="http://www.w3.org/2000/svg">
<path fill-rule="evenodd" clip-rule="evenodd" d="M42.6667 24V15.8899C38.2522 18.0122 31.5054 19.2 24 19.2C16.4946 19.2 9.74784 18.0122 5.33333 15.8899V24C5.33333 26.0088 13.6034 28.8 24 28.8C34.3966 28.8 42.6667 26.0089 42.6667 24ZM42.6667 30.2899C38.2522 32.4122 31.5054 33.6 24 33.6C16.4946 33.6 9.74784 32.4122 5.33333 30.2899V38.4C5.33333 40.4089 13.6034 43.2 24 43.2C34.3966 43.2 42.6667 40.4089 42.6667 38.4V30.2899ZM0 9.6C0 3.65595 10.8324 0 24 0C37.1676 0 48 3.65595 48 9.6V38.4C48 44.3441 37.1676 48 24 48C10.8324 48 0 44.3441 0 38.4V9.6ZM24 14.4C34.3966 14.4 42.6667 11.6088 42.6667 9.6C42.6667 7.59115 34.3966 4.8 24 4.8C13.6034 4.8 5.33333 7.59115 5.33333 9.6C5.33333 11.6088 13.6034 14.4 24 14.4Z" fill="#22651D"/>
</svg>
