<svg width="56" height="56" viewBox="0 0 56 56" fill="none" xmlns="http://www.w3.org/2000/svg">
<path d="M35.3719 26.3813C33.6219 29.1157 30.7125 32.0032 27.1687 31.4672C23.6687 30.9422 21.1859 27.661 19.6984 24.7188C19.4797 24.2922 18.9656 24.2485 18.5719 24.4235C18.2656 24.5657 17.9047 24.2813 17.6859 24.0735C17.2375 23.6578 16.9859 23.0672 16.8109 22.4985C16.6031 21.8094 16.3516 19.961 17.325 19.6657C17.7953 19.5235 17.9594 19.1078 17.8937 18.6594C17.8937 18.6594 17.8937 18.6594 17.8937 18.6485C17.8281 18.2 17.2703 17.9703 16.8875 18.0797C16.4172 18.211 16.2531 18.6485 16.3187 19.086C16.3187 19.086 16.3187 19.086 16.3187 19.0969C16.5047 18.7578 16.7016 18.4188 16.8875 18.0907C14.8312 18.725 14.7656 21.4047 15.2797 23.111C15.8047 24.8282 17.4453 26.7641 19.4031 25.8453C19.0312 25.7469 18.6594 25.6485 18.2766 25.55C19.9937 28.9516 22.9141 32.4844 26.8953 33.075C31.15 33.7094 34.65 30.5485 36.7828 27.2016C37.3625 26.3157 35.9406 25.4953 35.3719 26.3813ZM24.325 40.6328C26.6766 41.5297 29.2797 41.475 31.6641 40.7313C32.6703 40.425 32.2437 38.8391 31.2266 39.1453C29.0937 39.8016 26.8625 39.8453 24.7625 39.0469C23.7781 38.675 23.3516 40.261 24.325 40.6328Z" fill="#22651D"/>
<path d="M45.6422 54.5671C45.6422 51.9093 45.6422 49.2406 45.6422 46.5828C45.6422 45.489 45.6422 44.3953 45.6422 43.3015C45.6422 40.9609 44.439 38.8281 42.4812 37.5703C41.2781 36.7937 39.8453 36.6187 38.4781 36.3453C37.2969 36.1046 36.1265 35.875 34.9453 35.6343C35.1094 35.7546 35.2734 35.8859 35.4375 36.0062C35.0875 35.4921 34.7703 34.9234 34.3547 34.4531C33.7531 33.775 32.4515 33.6875 32.1453 34.6828C31.8828 35.5468 31.6312 36.4218 31.3687 37.2859C30.3953 40.5562 29.4219 43.8265 28.4484 47.0968C28.0328 48.4859 27.6172 49.875 27.2016 51.275C27.7266 51.275 28.2516 51.275 28.7875 51.275C27.2562 46.1015 25.725 40.939 24.1937 35.7656C24.0734 35.3718 23.9641 34.9781 23.8437 34.5734C23.6578 33.9281 22.9469 33.8843 22.3891 33.9718C21.9844 34.0375 21.689 34.3984 21.4594 34.7046C21.1531 35.1312 20.8578 35.5687 20.5515 35.9953C20.7156 35.875 20.8797 35.7437 21.0437 35.6234C19.7312 35.8859 18.4297 36.1484 17.1172 36.4109C16.6359 36.5093 16.1437 36.6078 15.6625 36.7062C14.4375 36.9468 13.3219 37.5703 12.4141 38.4125C10.9812 39.7359 10.3469 41.6281 10.3469 43.5421C10.3469 44.8656 10.3469 46.1781 10.3469 47.5015C10.3469 49.8531 10.3469 52.2046 10.3469 54.5562C10.3469 55.6171 11.9875 55.6171 11.9875 54.5562C11.9875 51.8984 11.9875 49.2296 11.9875 46.5718C11.9875 45.4781 11.9875 44.3843 11.9875 43.2906C11.9875 41.1468 13.3219 39.2 15.3562 38.4781C15.9359 38.2703 16.5812 38.1828 17.1937 38.0625C18.1016 37.8765 19.0203 37.7015 19.9281 37.5156C20.4422 37.4171 20.9672 37.3078 21.4812 37.2093C21.8859 37.1328 22.1812 36.5312 22.4 36.225C22.5312 36.039 22.6625 35.8421 22.7937 35.6562C22.8265 35.6015 22.8703 35.5468 22.9031 35.5031C23.0125 35.35 22.7719 35.5796 22.8266 35.5906C22.6406 35.4046 22.4437 35.2078 22.2578 35.0218C23.7891 40.1953 25.3203 45.3578 26.8515 50.5312C26.9719 50.925 27.0812 51.3187 27.2016 51.7234C27.4312 52.5109 28.5469 52.5 28.7875 51.7234C30.3297 46.55 31.8719 41.3875 33.4031 36.214C33.5234 35.8203 33.6437 35.4265 33.7531 35.0218C33.5672 35.2078 33.3703 35.4046 33.1844 35.5906C33.1625 35.6015 32.9875 35.339 33.1734 35.6015C33.2719 35.7546 33.3812 35.9078 33.4797 36.05C33.6547 36.3125 33.8406 36.575 34.0156 36.8265C34.3437 37.3078 35.0765 37.3187 35.6015 37.4171C37.0125 37.7015 38.4344 37.9859 39.8453 38.2703C42.0547 38.7078 43.7719 40.5125 43.9797 42.7765C44.0672 43.739 44.0015 44.7343 44.0015 45.6968C44.0015 48.65 44.0015 51.5921 44.0015 54.5453C44.0015 55.6281 45.6422 55.6281 45.6422 54.5671Z" fill="#22651D"/>
<path d="M22.3781 44.8765C22.3453 45.9812 21.5031 46.8234 20.3985 46.8562C19.2938 46.889 18.4516 45.9375 18.4188 44.8765C18.386 43.7718 19.3375 42.9297 20.3985 42.8968C21.5141 42.875 22.3563 43.8265 22.3781 44.8765C22.411 45.9375 24.0516 45.9375 24.0188 44.8765C23.9641 42.875 22.411 41.3109 20.3985 41.2562C18.3969 41.2015 16.8328 42.9515 16.7781 44.8765C16.7235 46.8781 18.4735 48.4422 20.3985 48.4968C22.4 48.5515 23.9641 46.8015 24.0188 44.8765C24.0516 43.8156 22.411 43.8265 22.3781 44.8765ZM35.175 49.9953C34.3875 49.9625 34.3547 49.2734 34.3547 48.6718C34.3547 47.8515 34.3547 47.0312 34.3547 46.2109C34.3547 45.6859 34.3547 45.1609 34.3547 44.6359C34.3547 43.5203 35.0656 42.5031 36.1047 42.1093C37.2203 41.6937 38.3797 42.0765 39.1453 42.9406C39.6594 43.5203 39.7469 44.264 39.7469 44.9968C39.7469 46.3859 39.7469 47.775 39.7469 49.1531C39.7469 49.6234 39.386 49.9625 38.9266 49.9843C37.8766 50.0281 37.8656 51.6687 38.9266 51.625C40.261 51.5593 41.3875 50.5422 41.3875 49.164C41.3875 48.6062 41.3875 48.0484 41.3875 47.4906C41.3875 45.8937 41.6063 44.1328 40.9063 42.6562C39.736 40.1843 36.3563 39.6047 34.311 41.289C33.3047 42.1203 32.7469 43.3343 32.725 44.6359C32.7141 45.1609 32.725 45.6859 32.725 46.2109C32.725 47.1515 32.725 48.0812 32.725 49.0218C32.725 50.4656 33.7313 51.5703 35.186 51.6359C36.236 51.6797 36.236 50.039 35.175 49.9953ZM24.0188 13.3109C24.3797 13.4093 24.7406 13.5515 25.0906 13.6828C25.1781 13.7156 25.2547 13.7484 25.3422 13.7812C25.5281 13.8578 25.211 13.7265 25.4625 13.8359C25.6813 13.9343 25.9 14.0328 26.1188 14.1422C26.611 14.3828 27.1031 14.6453 27.5735 14.9297C30.0891 16.4172 32.211 18.5281 33.611 21.1859C35.3828 24.5547 35.6344 28.5031 35.0656 32.2109C34.9344 33.0312 35.7766 33.5672 36.4328 33.0093C37.8985 31.7734 39.0688 30.0343 39.9328 28.339C41.9453 24.4015 42.1969 19.9062 40.9063 15.7062C39.4078 10.85 36.2578 6.2234 31.3469 4.41872C27.9344 3.1609 23.8219 3.49997 20.7156 5.41403C19.1953 6.34372 17.7844 7.82028 17.4891 9.64684C17.6094 9.48278 17.7406 9.31872 17.861 9.15465C17.0844 9.67965 16.6141 10.5765 16.275 11.4187C15.3235 13.825 15.7172 16.6797 16.3078 19.1187C16.4063 19.5453 16.8985 19.8187 17.3141 19.6875C20.5953 18.6922 23.3406 15.8703 24.9375 12.95C25.4516 12.0203 24.0297 11.189 23.5156 12.1187C22.4656 14.0328 21.0328 15.6843 19.2172 16.8984C18.6594 17.2703 18.0797 17.5984 17.4672 17.8718C17.4235 17.8937 17.3906 17.9047 17.3469 17.9265C17.15 18.014 17.511 17.8609 17.336 17.9375C17.2485 17.9703 17.1719 18.0031 17.0844 18.0359C17.0188 18.0578 16.9422 18.0906 16.8766 18.1125C17.2156 18.2984 17.5547 18.4953 17.8828 18.6812C17.3688 16.5265 17.0406 14.1531 17.7953 12.0093C17.8828 11.7797 17.9375 11.6375 18.1125 11.3312C18.1672 11.2218 18.2328 11.1234 18.2985 11.025C18.3313 10.9812 18.3641 10.9375 18.386 10.8937C18.4735 10.7734 18.2656 11.0468 18.4078 10.8718C18.4953 10.7625 18.5938 10.664 18.6922 10.5656C18.8891 10.3797 18.5719 10.6422 18.6813 10.5656C19.0641 10.3031 19.0641 9.90934 19.1953 9.50465C19.2172 9.43903 19.2391 9.36247 19.2719 9.29684C19.3594 9.06715 19.2063 9.43903 19.3047 9.22028C19.3813 9.05622 19.4578 8.90309 19.5563 8.74997C19.8735 8.21403 20.2891 7.78747 20.836 7.32809C21.9516 6.40934 23.5266 5.80778 25.036 5.51247C28.9406 4.75778 32.8891 6.28903 35.5469 9.20934C37.4063 11.2656 38.7078 13.9672 39.4735 16.614C40.0969 18.7906 40.2828 21.0984 39.911 23.3406C39.5172 25.6375 38.5766 27.7703 37.2313 29.6625C36.8594 30.1765 36.4328 30.7125 35.8969 31.2703C35.7 31.4781 35.5031 31.675 35.2844 31.8609C35.7438 32.1234 36.2031 32.3968 36.6516 32.6593C37.3297 28.2625 36.9688 23.7343 34.7266 19.8187C33.2063 17.1609 30.9094 15.0062 28.2844 13.4531C27.0922 12.7531 25.7906 12.1078 24.4453 11.7468C23.4391 11.4515 23.0016 13.0265 24.0188 13.3109Z" fill="#22651D"/>
<path d="M37.8765 41.114C37.8765 39.703 37.8765 38.303 37.8765 36.8921C37.8765 36.5093 37.625 36.214 37.275 36.1046C37.3953 36.1702 37.5156 36.2468 37.6359 36.3124C36.8922 35.5687 35.7218 36.728 36.4765 37.4718C36.5859 37.5812 36.6953 37.6359 36.8375 37.6796C36.6406 37.4171 36.4328 37.1546 36.2359 36.8921C36.2359 38.303 36.2359 39.703 36.2359 41.114C36.2359 42.1749 37.8765 42.1749 37.8765 41.114Z" fill="#22651D"/>
<path d="M23.7453 34.7704C23.7453 33.2829 23.7453 31.7954 23.7453 30.2969C23.7453 29.236 22.1047 29.236 22.1047 30.2969C22.1047 31.7844 22.1047 33.2719 22.1047 34.7704C22.1047 35.8313 23.7453 35.8313 23.7453 34.7704Z" fill="#22651D"/>
<path d="M33.8953 34.7813C33.8953 33.2938 33.8953 31.7954 33.8953 30.3079C33.8953 29.247 32.2547 29.247 32.2547 30.3079C32.2547 31.7954 32.2547 33.2938 32.2547 34.7813C32.2547 35.8313 33.8953 35.8313 33.8953 34.7813Z" fill="#22651D"/>
<path d="M21.2297 42.0874C21.2297 40.2608 21.2297 38.4343 21.2297 36.6077C21.2297 35.5468 19.5891 35.5468 19.5891 36.6077C19.5891 38.4343 19.5891 40.2608 19.5891 42.0874C19.5891 43.1374 21.2297 43.1374 21.2297 42.0874Z" fill="#22651D"/>
<path d="M21.35 34.9125C21.0328 35.2296 21.0328 35.7546 21.35 36.0718C21.6672 36.389 22.1922 36.389 22.5094 36.0718C22.8266 35.7546 22.8266 35.2296 22.5094 34.9125C22.1922 34.5953 21.6672 34.5953 21.35 34.9125Z" fill="#22651D"/>
<path d="M44.8218 53.7468C40.3375 53.7468 35.8531 53.7468 31.3578 53.7468C25.1781 53.7468 18.9984 53.7468 12.8187 53.7468C12.2719 53.7468 11.714 53.7468 11.1672 53.7468C10.1062 53.7468 10.1062 55.3875 11.1672 55.3875C15.6515 55.3875 20.1359 55.3875 24.6312 55.3875C30.8109 55.3875 36.9906 55.3875 43.1703 55.3875C43.7172 55.3875 44.275 55.3875 44.8218 55.3875C45.8828 55.3875 45.8828 53.7468 44.8218 53.7468Z" fill="#22651D"/>
</svg>
