<svg width="41" height="41" viewBox="0 0 41 41" fill="none" xmlns="http://www.w3.org/2000/svg">
<path fill-rule="evenodd" clip-rule="evenodd" d="M40.387 40.4107H7.16777C3.49848 40.4107 0.523926 37.7336 0.523926 34.4312V6.52707C0.523926 3.2247 3.49848 0.547607 7.16777 0.547607H40.387V32.4381C39.1639 32.4381 38.1724 33.3304 38.1724 34.4312C38.1724 35.532 39.1639 36.4244 40.387 36.4244V40.4107ZM33.7432 34.4312C33.7432 33.7324 33.8764 33.0615 34.1212 32.4381H7.16777C5.94467 32.4381 4.95316 33.3304 4.95316 34.4312C4.95316 35.532 5.94467 36.4244 7.16777 36.4244H34.1212C33.8764 35.801 33.7432 35.1301 33.7432 34.4312ZM35.9578 4.53392H7.16777C5.94467 4.53392 4.95316 5.42628 4.95316 6.52707V28.792C5.64584 28.5717 6.39125 28.4518 7.16777 28.4518H35.9578V4.53392Z" fill="#22651D"/>
</svg>
