<svg width="35" height="35" viewBox="0 0 35 35" fill="none" xmlns="http://www.w3.org/2000/svg">
<path d="M33.4091 25.4545H1.59091C1.16897 25.4545 0.76432 25.6222 0.465966 25.9205C0.167613 26.2189 0 26.6235 0 27.0455C0 27.4674 0.167613 27.872 0.465966 28.1704C0.76432 28.4688 1.16897 28.6364 1.59091 28.6364H33.4091C33.831 28.6364 34.2357 28.4688 34.534 28.1704C34.8324 27.872 35 27.4674 35 27.0455C35 26.6235 34.8324 26.2189 34.534 25.9205C34.2357 25.6222 33.831 25.4545 33.4091 25.4545ZM33.4091 31.8182H1.59091C1.16897 31.8182 0.76432 31.9858 0.465966 32.2841C0.167613 32.5825 0 32.9872 0 33.4091C0 33.831 0.167613 34.2357 0.465966 34.534C0.76432 34.8324 1.16897 35 1.59091 35H33.4091C33.831 35 34.2357 34.8324 34.534 34.534C34.8324 34.2357 35 33.831 35 33.4091C35 32.9872 34.8324 32.5825 34.534 32.2841C34.2357 31.9858 33.831 31.8182 33.4091 31.8182ZM7.95455 9.54545C7.63989 9.54545 7.33231 9.63876 7.07068 9.81357C6.80906 9.98838 6.60515 10.2368 6.48474 10.5275C6.36432 10.8182 6.33282 11.1381 6.39421 11.4467C6.45559 11.7553 6.60711 12.0388 6.8296 12.2613C7.0521 12.4838 7.33557 12.6353 7.64417 12.6967C7.95278 12.7581 8.27266 12.7266 8.56336 12.6062C8.85406 12.4858 9.10253 12.2818 9.27734 12.0202C9.45215 11.7586 9.54545 11.451 9.54545 11.1364C9.54545 10.7144 9.37784 10.3098 9.07949 10.0114C8.78113 9.71307 8.37648 9.54545 7.95455 9.54545ZM30.2273 0H4.77273C3.50692 0 2.29296 0.502839 1.3979 1.3979C0.502839 2.29296 0 3.50692 0 4.77273V17.5C0 18.7658 0.502839 19.9798 1.3979 20.8748C2.29296 21.7699 3.50692 22.2727 4.77273 22.2727H30.2273C31.4931 22.2727 32.707 21.7699 33.6021 20.8748C34.4972 19.9798 35 18.7658 35 17.5V4.77273C35 3.50692 34.4972 2.29296 33.6021 1.3979C32.707 0.502839 31.4931 0 30.2273 0ZM31.8182 17.5C31.8182 17.9219 31.6506 18.3266 31.3522 18.6249C31.0539 18.9233 30.6492 19.0909 30.2273 19.0909H4.77273C4.35079 19.0909 3.94614 18.9233 3.64778 18.6249C3.34943 18.3266 3.18182 17.9219 3.18182 17.5V4.77273C3.18182 4.35079 3.34943 3.94614 3.64778 3.64778C3.94614 3.34943 4.35079 3.18182 4.77273 3.18182H30.2273C30.6492 3.18182 31.0539 3.34943 31.3522 3.64778C31.6506 3.94614 31.8182 4.35079 31.8182 4.77273V17.5ZM17.5 6.36364C16.556 6.36364 15.6333 6.64355 14.8484 7.16799C14.0635 7.69242 13.4518 8.43782 13.0906 9.30992C12.7293 10.182 12.6348 11.1417 12.819 12.0675C13.0031 12.9933 13.4577 13.8437 14.1252 14.5112C14.7926 15.1787 15.6431 15.6332 16.5689 15.8174C17.4947 16.0015 18.4543 15.907 19.3264 15.5458C20.1985 15.1846 20.9439 14.5728 21.4684 13.7879C21.9928 13.0031 22.2727 12.0803 22.2727 11.1364C22.2727 9.87056 21.7699 8.6566 20.8748 7.76154C19.9798 6.86648 18.7658 6.36364 17.5 6.36364ZM17.5 12.7273C17.1853 12.7273 16.8778 12.634 16.6161 12.4592C16.3545 12.2843 16.1506 12.0359 16.0302 11.7452C15.9098 11.4545 15.8783 11.1346 15.9397 10.826C16.001 10.5174 16.1526 10.2339 16.3751 10.0114C16.5976 9.78893 16.881 9.63741 17.1896 9.57602C17.4982 9.51464 17.8181 9.54614 18.1088 9.66656C18.3995 9.78697 18.648 9.99088 18.8228 10.2525C18.9976 10.5141 19.0909 10.8217 19.0909 11.1364C19.0909 11.5583 18.9233 11.963 18.6249 12.2613C18.3266 12.5597 17.9219 12.7273 17.5 12.7273ZM27.0455 9.54545C26.7308 9.54545 26.4232 9.63876 26.1616 9.81357C25.9 9.98838 25.6961 10.2368 25.5756 10.5275C25.4552 10.8182 25.4237 11.1381 25.4851 11.4467C25.5465 11.7553 25.698 12.0388 25.9205 12.2613C26.143 12.4838 26.4265 12.6353 26.7351 12.6967C27.0437 12.7581 27.3636 12.7266 27.6543 12.6062C27.945 12.4858 28.1934 12.2818 28.3682 12.0202C28.5431 11.7586 28.6364 11.451 28.6364 11.1364C28.6364 10.7144 28.4688 10.3098 28.1704 10.0114C27.872 9.71307 27.4674 9.54545 27.0455 9.54545Z" fill="#22651D"/>
</svg>
