<svg width="56" height="56" viewBox="0 0 56 56" fill="none" xmlns="http://www.w3.org/2000/svg">
<path d="M41.0501 25.6973H39.8661V23.4325C42.5163 22.4593 44.3691 20.2696 44.3691 17.729V15.075V13.7502C44.3691 11.6257 43.0735 9.74683 41.1002 8.61882C40.576 7.06442 38.8439 5.91992 36.7926 5.91992C34.7414 5.91992 33.0093 7.06442 32.4851 8.61882C30.5117 9.74683 29.2159 11.6257 29.2159 13.7502V15.075V17.729C29.2159 20.2696 31.0689 22.4593 33.7191 23.4325V25.6973H32.5352C27.18 25.6973 22.8234 29.2868 22.8234 33.6989V34.9757H20.8991V29.8212H20.1802C19.4007 29.8212 18.654 29.9383 17.9635 30.1512V29.8212H17.2445C13.7471 29.8212 10.9019 32.1654 10.9019 35.0469L10.9041 45.7799H22.7343C23.1272 45.7799 23.5156 45.7641 23.8994 45.7344H50.7619V33.6989C50.7617 29.2868 46.4053 25.6973 41.0501 25.6973ZM41.1971 10.2323C42.1415 11.0348 42.7671 12.0928 42.9027 13.2672C42.085 12.842 40.9904 12.5296 39.7878 12.3361C40.5143 11.7951 41.0235 11.0605 41.1971 10.2323ZM33.7752 9.34818C33.8084 9.07907 33.8946 8.82288 34.0235 8.58565C34.202 8.25749 34.4635 7.96665 34.7864 7.73149C35.3217 7.34183 36.024 7.1046 36.7925 7.1046C37.5611 7.1046 38.2634 7.34173 38.7984 7.73149C39.1213 7.96675 39.383 8.25749 39.5615 8.58565C39.6905 8.82278 39.7766 9.07907 39.8098 9.34818C39.8203 9.4323 39.8255 9.51749 39.8255 9.60368C39.8255 10.9817 38.4649 12.1027 36.7924 12.1027C35.1198 12.1027 33.7592 10.9817 33.7592 9.60368C33.7594 9.5174 33.7648 9.4322 33.7752 9.34818ZM32.3879 10.2323C32.5618 11.0606 33.071 11.7951 33.7975 12.3362C32.5948 12.5297 31.5002 12.8421 30.6824 13.2673C30.8182 12.0927 31.4436 11.0348 32.3879 10.2323ZM30.6538 17.7289V15.0749C30.6538 14.346 33.0452 13.2873 36.7926 13.2873C40.54 13.2873 42.9312 14.3461 42.9312 15.0749V17.7289C42.9312 19.5954 41.6967 21.2277 39.8661 22.1041C39.6353 22.2146 39.3957 22.3137 39.1472 22.399C38.9146 22.4791 38.6742 22.5467 38.4282 22.6028C37.907 22.7216 37.3589 22.7865 36.7926 22.7865C36.2263 22.7865 35.6781 22.7216 35.157 22.6028C34.911 22.5467 34.6707 22.479 34.4381 22.399C34.1896 22.3137 33.9499 22.2146 33.7191 22.1041C31.8882 21.2278 30.6538 19.5954 30.6538 17.7289ZM38.4282 23.8232V25.6973H35.1569V23.8232C35.6839 23.9191 36.2309 23.9714 36.7925 23.9714C37.3541 23.9714 37.9012 23.919 38.4282 23.8232ZM17.9635 31.4432C18.4256 31.2494 18.9296 31.1137 19.4613 31.049V34.9756H17.9635V31.4432ZM23.5424 44.5682C23.3046 44.5825 23.0652 44.5917 22.8234 44.5934C22.7936 44.5936 22.7642 44.5952 22.7343 44.5952H12.342L12.3397 35.0469C12.3397 33.1832 13.8795 31.611 15.9656 31.1463C16.1484 31.1055 16.335 31.0723 16.5256 31.0491V31.527V32.3558V36.1603H19.4613H20.1803H20.8991H22.8234H23.5424H24.2613H29.943V39.2565H32.7308C31.2155 42.0336 28.0464 44.0696 24.2613 44.5065C24.024 44.5338 23.784 44.5535 23.5424 44.5682ZM31.3809 38.0718V36.1603H33.6676C33.6154 36.8194 33.4743 37.4584 33.259 38.0718H31.3809ZM49.3238 44.5496H28.6277C31.1984 43.4001 33.2225 41.5232 34.2918 39.2565H34.3596V39.1095C34.8566 38.0056 35.1286 36.8125 35.1286 35.568V34.9757H24.2612V33.6989C24.2612 29.9401 27.9728 26.882 32.535 26.882H33.719H34.438H35.1569H38.4282H39.1472H39.8661H41.0501C45.6123 26.882 49.3238 29.9401 49.3238 33.6989V44.5496Z" fill="#22651D"/>
<path d="M40.4279 33.5752H35.7369V35.6739H33.6382V40.3648H35.7369V42.4634H40.4279V40.3648H42.5265V35.6739H40.4279V33.5752ZM41.2139 36.9863V39.0521H39.1152V41.1508H37.0493V39.0521H34.9506V36.9863H37.0493V34.8876H39.1152V36.9863H41.2139Z" fill="#22651D"/>
<path d="M15.3237 42.1664V42.8163H17.0737V42.1664V40.8076H15.3237V42.1664Z" fill="#22651D"/>
<path d="M31.7779 22.5513C32.266 22.8397 32.8344 23.006 33.4411 23.006C34.0478 23.006 34.6162 22.8396 35.1044 22.5513C36.0706 21.98 36.7204 20.928 36.7204 19.7266H35.4079C35.4079 20.8111 34.5257 21.6935 33.4411 21.6935C32.3566 21.6935 31.4741 20.8111 31.4741 19.7266H30.1616C30.1616 20.928 30.8116 21.98 31.7779 22.5513Z" fill="#22651D"/>
</svg>
