<svg width="37" height="24" viewBox="0 0 37 24" fill="none" xmlns="http://www.w3.org/2000/svg">
<path fill-rule="evenodd" clip-rule="evenodd" d="M37 16C37 20.4183 33.2351 24 28.5909 24H10.0909C4.51785 24 0 19.7019 0 14.4C0 9.53403 3.81273 5.49354 8.77891 4.88044C10.947 1.86412 14.5535 0 18.5 0C23.8122 0 28.3807 3.36899 29.811 8.08359C33.877 8.6458 37 11.9759 37 16ZM28.5909 20.8C31.3774 20.8 33.6364 18.651 33.6364 16C33.6364 13.349 31.3774 11.2 28.5909 11.2C28.5382 11.2002 28.5382 11.2002 28.4858 11.201L27.0331 11.2291L26.7929 9.86585C26.1192 6.04202 22.6223 3.2 18.5 3.2C15.4599 3.2 12.705 4.74629 11.2117 7.20637L10.7479 7.97042L9.82124 8.00502C6.22162 8.13944 3.36364 10.9607 3.36364 14.4C3.36364 17.9346 6.37554 20.8 10.0909 20.8H28.5909Z" fill="#22651D"/>
</svg>
